<svg width="18" height="20" viewBox="0 0 18 20" fill="none" xmlns="http://www.w3.org/2000/svg">
<path d="M0.501953 14.8799C0.486636 13.8549 0.563329 12.6783 0.685547 11.5137C0.930319 9.18121 1.35232 6.94508 1.55078 6.15137C1.58245 6.02475 1.67169 5.83069 1.83984 5.57227C2.00376 5.3204 2.22563 5.03302 2.49512 4.72363C3.03404 4.10493 3.74269 3.42072 4.50586 2.7832C5.26952 2.14527 6.0758 1.56425 6.80664 1.14551C7.56002 0.713859 8.15657 0.500107 8.52539 0.5C8.895 0.5 9.49753 0.714341 10.2588 1.14648C10.997 1.56557 11.8129 2.14716 12.5859 2.78516C13.3586 3.42293 14.0763 4.10779 14.6221 4.72656C14.8951 5.03606 15.1204 5.32247 15.2861 5.57422C15.4562 5.83266 15.5449 6.02617 15.5762 6.15137C15.7739 6.94195 16.1772 9.17626 16.4033 11.5098C16.5162 12.6745 16.5838 13.8515 16.5615 14.877C16.5389 15.9194 16.424 16.7438 16.21 17.2422C15.7996 18.1973 14.752 18.7853 13.2734 19.1201C11.8144 19.4505 10.0829 19.5 8.52539 19.5C6.96674 19.5 5.23515 19.4505 3.77637 19.1201C2.29842 18.7853 1.25214 18.1972 0.841797 17.2422C0.628443 16.7455 0.517548 15.9224 0.501953 14.8799Z" stroke="#CECECE" stroke-opacity="0.5"/>
</svg>
