<svg width="17" height="23" viewBox="0 0 17 23" fill="none" xmlns="http://www.w3.org/2000/svg">
<mask id="path-1-inside-1_2103_167" fill="white">
<path d="M8.53983 23C10.5777 23 15.1562 17.9532 15.5667 16.0654C15.9771 14.1776 17.701 5.67014 16.6831 2.94493C15.6652 0.219718 11.6586 0 8.53983 0C5.42316 0 1.41449 0.219718 0.396584 2.94493C-0.621327 5.67014 0.593555 14.1776 1.00402 16.0654C1.41448 17.9532 6.50195 23 8.53983 23Z"/>
</mask>
<g filter="url(#filter0_i_2103_167)">
<path d="M8.53983 23C10.5777 23 15.1562 17.9532 15.5667 16.0654C15.9771 14.1776 17.701 5.67014 16.6831 2.94493C15.6652 0.219718 11.6586 0 8.53983 0C5.42316 0 1.41449 0.219718 0.396584 2.94493C-0.621327 5.67014 0.593555 14.1776 1.00402 16.0654C1.41448 17.9532 6.50195 23 8.53983 23Z" fill="white" fill-opacity="0.01"/>
</g>
<path d="M8.53983 13.5C8.53983 19.8333 8.53983 26.1667 8.53983 32.5C13.1214 32.9765 14.4641 32.4121 16.1304 32.2825C17.6685 32.0678 18.8654 31.8447 19.9804 31.5693C22.3038 30.9866 24.1593 30.2147 25.8881 28.9747C26.7544 28.342 27.5686 27.621 28.4431 26.5384C28.8765 25.9971 29.3369 25.3541 29.8496 24.4445C30.3522 23.4688 30.9897 22.5064 31.69 19.5711C31.6911 19.5659 31.6922 19.5608 31.6933 19.5556C32.269 16.8515 32.3595 14.3661 32.133 11.4713C32.0132 10.0257 31.8105 8.52365 31.4703 6.7462C31.297 5.84903 31.0943 4.891 30.7929 3.68464C30.4464 2.43198 30.2229 1.12847 28.9917 -1.65254C27.4222 -5.07366 24.2676 -7.85995 21.7358 -8.95891C19.1595 -10.1354 17.1541 -10.2849 15.5391 -10.2696C12.3357 -10.1603 10.2976 -9.29789 8.53983 -8.50084C6.79718 -7.67339 4.8039 -6.83469 2.61827 -5.54641C0.598371 -4.356 -2.69176 -2.01936 -3.22149 1.59352C-3.44938 3.89125 -2.86328 4.92735 -2.50977 6.19771C-2.10801 7.40515 -1.68803 8.52298 -1.30372 9.62833C-0.523218 11.8362 0.0796292 13.9589 0.51541 16.1716C0.518359 16.1851 0.521448 16.1986 0.524672 16.2121C0.524672 16.2121 0.524672 16.2121 0.524672 16.2121C0.333983 15.9614 -14.7055 25.1508 -13.8453 26.5443C-10.438 31.6536 -6.61551 31.4925 -0.836712 29.8823C2.04561 28.8005 6.20909 27.426 8.53983 23.5C8.53983 23.1667 8.53983 22.8333 8.53983 22.5C8.66952 18.3793 11.0009 15.5483 12.1508 13.1844C13.3847 11.0097 14.3581 9.37256 15.0499 8.30635C15.399 7.77717 15.6805 7.39069 15.9361 7.21392C16.1987 7.05411 16.4082 7.03084 16.793 7.64204C17.2726 8.41062 1.86687 16.9395 1.4972 15.9793C1.4972 15.9793 1.4972 15.9793 1.4972 15.9793C1.49555 15.9724 1.49403 15.9657 1.49263 15.9592C1.08368 13.8529 1.16719 11.5852 1.58329 9.40044C1.79552 8.30831 2.0991 7.22089 2.51052 6.22441C2.71638 5.72927 2.95052 5.25482 3.21521 4.86312C3.46991 4.49095 3.80834 4.11344 4.01465 4.29634C4.31977 4.5122 4.35253 5.04328 4.49669 5.36888C4.63742 5.71424 4.9259 5.99165 5.32373 6.30599C6.13131 6.9237 7.22577 7.67862 8.53983 8.50084C9.83878 9.30312 10.8885 10.2491 10.6784 11.0288C10.5534 11.3863 10.0202 11.7357 8.74002 11.3838C7.5027 11.0988 5.41706 9.51712 4.37442 7.5424C3.51767 5.78829 3.42488 5.60852 3.15328 5.45479C2.92155 5.3522 2.71397 5.49786 2.50159 5.70365C2.07976 6.13303 1.65806 6.83427 1.26355 7.58032C0.477309 9.06994 -0.208314 10.9381 -0.555023 12.5525C-0.555556 12.5549 -0.556079 12.5574 -0.556593 12.5597C0.01915 10.1803 0.410711 9.75717 0.654162 9.2846C0.904427 8.88008 1.05993 8.74005 1.18172 8.67445C1.42161 8.55792 1.54341 8.74842 1.67684 9.00569C1.93729 9.53883 2.19226 10.4308 2.766 11.3443C3.04765 11.7765 3.37911 12.2214 3.98357 12.5847C4.29131 12.7674 4.66835 12.9215 5.27968 13.0389C5.91032 13.1784 6.71803 13.1638 8.53983 13.5ZM8.53983 32.5L8.53983 13.5L8.53983 22.5V23.5V32.5Z" fill="white" fill-opacity="0.01" mask="url(#path-1-inside-1_2103_167)"/>
<defs>
<filter id="filter0_i_2103_167" x="0" y="0" width="17" height="23" filterUnits="userSpaceOnUse" color-interpolation-filters="sRGB">
<feFlood flood-opacity="0" result="BackgroundImageFix"/>
<feBlend mode="normal" in="SourceGraphic" in2="BackgroundImageFix" result="shape"/>
<feColorMatrix in="SourceAlpha" type="matrix" values="0 0 0 0 0 0 0 0 0 0 0 0 0 0 0 0 0 0 127 0" result="hardAlpha"/>
<feOffset/>
<feGaussianBlur stdDeviation="2.5"/>
<feComposite in2="hardAlpha" operator="arithmetic" k2="-1" k3="1"/>
<feColorMatrix type="matrix" values="0 0 0 0 1 0 0 0 0 1 0 0 0 0 1 0 0 0 1 0"/>
<feBlend mode="normal" in2="shape" result="effect1_innerShadow_2103_167"/>
</filter>
</defs>
</svg>
