<svg width="18" height="20" viewBox="0 0 18 20" fill="none" xmlns="http://www.w3.org/2000/svg">
<path d="M16.5635 5.12012C16.5789 6.14512 16.5022 7.32168 16.3799 8.48633C16.1352 10.8188 15.7132 13.0549 15.5147 13.8486C15.483 13.9753 15.3938 14.1693 15.2256 14.4277C15.0617 14.6796 14.8399 14.967 14.5704 15.2764C14.0314 15.8951 13.3228 16.5793 12.5596 17.2168C11.796 17.8547 10.9897 18.4357 10.2589 18.8545C9.50547 19.2861 8.90892 19.4999 8.5401 19.5C8.17049 19.5 7.56796 19.2857 6.8067 18.8535C6.06854 18.4344 5.25256 17.8528 4.47955 17.2148C3.70685 16.5771 2.98921 15.8922 2.44342 15.2734C2.17043 14.9639 1.94505 14.6775 1.77936 14.4258C1.60926 14.1673 1.52064 13.9738 1.48932 13.8486C1.29164 13.058 0.888279 10.8237 0.66217 8.49023C0.549314 7.32552 0.481718 6.14849 0.503967 5.12305C0.526596 4.08059 0.641443 3.25622 0.85553 2.75781C1.26584 1.80273 2.31346 1.21472 3.79205 0.879883C5.25113 0.549519 6.98255 0.5 8.5401 0.5C10.0987 0.500006 11.8303 0.549477 13.2891 0.879883C14.7671 1.21469 15.8133 1.80285 16.2237 2.75781C16.437 3.25451 16.5479 4.07761 16.5635 5.12012Z" stroke="#CECECE" stroke-opacity="0.5"/>
</svg>
