<svg width="20" height="18" viewBox="0 0 20 18" fill="none" xmlns="http://www.w3.org/2000/svg">
<path d="M5.12012 0.501953C6.14512 0.486636 7.32168 0.563329 8.48633 0.685547C10.8188 0.930319 13.0549 1.35232 13.8486 1.55078C13.9753 1.58245 14.1693 1.67169 14.4277 1.83984C14.6796 2.00376 14.967 2.22563 15.2764 2.49512C15.8951 3.03404 16.5793 3.74269 17.2168 4.50586C17.8547 5.26952 18.4357 6.0758 18.8545 6.80664C19.2861 7.56002 19.4999 8.15657 19.5 8.52539C19.5 8.895 19.2857 9.49753 18.8535 10.2588C18.4344 10.997 17.8528 11.8129 17.2148 12.5859C16.5771 13.3586 15.8922 14.0763 15.2734 14.6221C14.9639 14.8951 14.6775 15.1204 14.4258 15.2861C14.1673 15.4562 13.9738 15.5449 13.8486 15.5762C13.058 15.7739 10.8237 16.1772 8.49023 16.4033C7.32552 16.5162 6.14849 16.5838 5.12305 16.5615C4.08059 16.5389 3.25622 16.424 2.75781 16.21C1.80273 15.7996 1.21472 14.752 0.879883 13.2734C0.549519 11.8144 0.5 10.0829 0.5 8.52539C0.500006 6.96674 0.549477 5.23515 0.879883 3.77637C1.21469 2.29842 1.80285 1.25214 2.75781 0.841797C3.25451 0.628443 4.07761 0.517548 5.12012 0.501953Z" stroke="#CECECE" stroke-opacity="0.5"/>
</svg>
