<svg width="20" height="18" viewBox="0 0 20 18" fill="none" xmlns="http://www.w3.org/2000/svg">
<path d="M14.8799 16.5635C13.8549 16.5789 12.6783 16.5022 11.5137 16.3799C9.18121 16.1352 6.94508 15.7132 6.15137 15.5147C6.02475 15.483 5.83069 15.3938 5.57227 15.2256C5.3204 15.0617 5.03303 14.8399 4.72363 14.5704C4.10493 14.0314 3.42072 13.3228 2.7832 12.5596C2.14527 11.796 1.56425 10.9897 1.14551 10.2589C0.713859 9.50547 0.500107 8.90892 0.5 8.5401C0.5 8.17049 0.714341 7.56796 1.14648 6.8067C1.56557 6.06854 2.14716 5.25256 2.78516 4.47955C3.42293 3.70685 4.10779 2.98921 4.72656 2.44342C5.03606 2.17043 5.32247 1.94505 5.57422 1.77936C5.83267 1.60926 6.02617 1.52064 6.15137 1.48932C6.94195 1.29164 9.17626 0.888279 11.5098 0.66217C12.6745 0.549314 13.8515 0.481718 14.877 0.503967C15.9194 0.526596 16.7438 0.641443 17.2422 0.85553C18.1973 1.26584 18.7853 2.31346 19.1201 3.79205C19.4505 5.25113 19.5 6.98255 19.5 8.5401C19.5 10.0987 19.4505 11.8303 19.1201 13.2891C18.7853 14.7671 18.1972 15.8133 17.2422 16.2237C16.7455 16.437 15.9224 16.5479 14.8799 16.5635Z" stroke="#CECECE" stroke-opacity="0.5"/>
</svg>
