<svg width="23" height="17" viewBox="0 0 23 17" fill="none" xmlns="http://www.w3.org/2000/svg">
<mask id="path-1-inside-1_2103_146" fill="white">
<path d="M-6.35773e-07 8.53983C-6.35773e-07 10.5777 5.0468 15.1562 6.9346 15.5667C8.82239 15.9771 17.3299 17.701 20.0551 16.6831C22.7803 15.6652 23 11.6586 23 8.53983C23 5.42316 22.7803 1.41449 20.0551 0.396584C17.3299 -0.621327 8.82239 0.593555 6.9346 1.00402C5.0468 1.41448 -6.35773e-07 6.50195 -6.35773e-07 8.53983Z"/>
</mask>
<g filter="url(#filter0_i_2103_146)">
<path d="M-6.35773e-07 8.53983C-6.35773e-07 10.5777 5.0468 15.1562 6.9346 15.5667C8.82239 15.9771 17.3299 17.701 20.0551 16.6831C22.7803 15.6652 23 11.6586 23 8.53983C23 5.42316 22.7803 1.41449 20.0551 0.396584C17.3299 -0.621327 8.82239 0.593555 6.9346 1.00402C5.0468 1.41448 -6.35773e-07 6.50195 -6.35773e-07 8.53983Z" fill="white" fill-opacity="0.01"/>
</g>
<path d="M9.5 8.53983C3.16667 8.53983 -3.16667 8.53983 -9.5 8.53983C-9.9765 13.1214 -9.41208 14.4641 -9.28246 16.1304C-9.06777 17.6685 -8.84472 18.8654 -8.56932 19.9804C-7.9866 22.3038 -7.21469 24.1593 -5.97471 25.8881C-5.34201 26.7544 -4.62103 27.5686 -3.53839 28.4431C-2.99712 28.8765 -2.35408 29.3369 -1.44453 29.8496C-0.468784 30.3522 0.493576 30.9897 3.42894 31.69C3.43405 31.6911 3.43919 31.6922 3.44435 31.6933C6.14849 32.269 8.6339 32.3595 11.5287 32.133C12.9743 32.0132 14.4764 31.8105 16.2538 31.4703C17.151 31.297 18.109 31.0943 19.3154 30.7929C20.568 30.4464 21.8715 30.2229 24.6525 28.9917C28.0737 27.4222 30.8599 24.2676 31.9589 21.7358C33.1354 19.1595 33.2849 17.1541 33.2696 15.5391C33.1603 12.3357 32.2979 10.2976 31.5008 8.53983C30.6734 6.79718 29.8347 4.8039 28.5464 2.61827C27.356 0.598371 25.0194 -2.69176 21.4065 -3.22149C19.1088 -3.44938 18.0727 -2.86328 16.8023 -2.50977C15.5948 -2.10801 14.477 -1.68803 13.3717 -1.30372C11.1638 -0.523218 9.04111 0.0796292 6.82836 0.51541C6.81487 0.518359 6.8014 0.521448 6.78793 0.524672C6.78793 0.524672 6.78793 0.524672 6.78793 0.524672C7.03856 0.333983 -2.15083 -14.7055 -3.54433 -13.8453C-8.65357 -10.438 -8.49247 -6.61551 -6.88234 -0.836712C-5.80051 2.04561 -4.42604 6.20909 -0.500001 8.53983C-0.166667 8.53983 0.166666 8.53983 0.499999 8.53983C4.62068 8.66952 7.45167 11.0009 9.81563 12.1508C11.9903 13.3847 13.6274 14.3581 14.6937 15.0499C15.2228 15.399 15.6093 15.6805 15.7861 15.9361C15.9459 16.1987 15.9692 16.4082 15.358 16.793C14.5894 17.2726 6.06048 1.86687 7.02071 1.4972C7.02071 1.4972 7.02071 1.4972 7.02071 1.4972C7.0276 1.49555 7.03431 1.49403 7.04083 1.49263C9.14713 1.08368 11.4148 1.16719 13.5996 1.58329C14.6917 1.79552 15.7791 2.0991 16.7756 2.51052C17.2707 2.71638 17.7452 2.95052 18.1369 3.21521C18.5091 3.46991 18.8866 3.80834 18.7037 4.01465C18.4878 4.31977 17.9567 4.35253 17.6311 4.49669C17.2858 4.63742 17.0084 4.9259 16.694 5.32373C16.0763 6.13131 15.3214 7.22577 14.4992 8.53983C13.6969 9.83878 12.7509 10.8885 11.9712 10.6784C11.6137 10.5534 11.2643 10.0202 11.6162 8.74002C11.9012 7.5027 13.4829 5.41706 15.4576 4.37442C17.2117 3.51767 17.3915 3.42488 17.5452 3.15328C17.6478 2.92155 17.5021 2.71397 17.2964 2.50159C16.867 2.07976 16.1657 1.65806 15.4197 1.26355C13.9301 0.477309 12.0619 -0.208314 10.4475 -0.555023C10.4451 -0.555556 10.4426 -0.556079 10.4403 -0.556593C12.8197 0.01915 13.2428 0.410711 13.7154 0.654162C14.1199 0.904427 14.2599 1.05993 14.3256 1.18172C14.4421 1.42161 14.2516 1.54341 13.9943 1.67684C13.4612 1.93729 12.5692 2.19226 11.6557 2.766C11.2235 3.04765 10.7786 3.37911 10.4153 3.98357C10.2326 4.29131 10.0785 4.66835 9.96112 5.27968C9.82159 5.91032 9.83618 6.71803 9.5 8.53983ZM-9.5 8.53983L9.5 8.53983L0.499999 8.53983H-0.500001H-9.5Z" fill="white" fill-opacity="0.01" mask="url(#path-1-inside-1_2103_146)"/>
<defs>
<filter id="filter0_i_2103_146" x="0" y="0" width="23" height="17" filterUnits="userSpaceOnUse" color-interpolation-filters="sRGB">
<feFlood flood-opacity="0" result="BackgroundImageFix"/>
<feBlend mode="normal" in="SourceGraphic" in2="BackgroundImageFix" result="shape"/>
<feColorMatrix in="SourceAlpha" type="matrix" values="0 0 0 0 0 0 0 0 0 0 0 0 0 0 0 0 0 0 127 0" result="hardAlpha"/>
<feOffset/>
<feGaussianBlur stdDeviation="2.5"/>
<feComposite in2="hardAlpha" operator="arithmetic" k2="-1" k3="1"/>
<feColorMatrix type="matrix" values="0 0 0 0 1 0 0 0 0 1 0 0 0 0 1 0 0 0 1 0"/>
<feBlend mode="normal" in2="shape" result="effect1_innerShadow_2103_146"/>
</filter>
</defs>
</svg>
