<svg width="23" height="17" viewBox="0 0 23 17" fill="none" xmlns="http://www.w3.org/2000/svg">
<mask id="path-1-inside-1_2103_163" fill="white">
<path d="M23 8.46017C23 6.42229 17.9532 1.84378 16.0654 1.43332C14.1776 1.02286 5.67014 -0.700987 2.94493 0.31692C0.219718 1.33483 0 5.34143 0 8.46017C0 11.5768 0.219718 15.5855 2.94493 16.6034C5.67014 17.6213 14.1776 16.4064 16.0654 15.996C17.9532 15.5855 23 10.4981 23 8.46017Z"/>
</mask>
<g filter="url(#filter0_i_2103_163)">
<path d="M23 8.46017C23 6.42229 17.9532 1.84378 16.0654 1.43332C14.1776 1.02286 5.67014 -0.700987 2.94493 0.31692C0.219718 1.33483 0 5.34143 0 8.46017C0 11.5768 0.219718 15.5855 2.94493 16.6034C5.67014 17.6213 14.1776 16.4064 16.0654 15.996C17.9532 15.5855 23 10.4981 23 8.46017Z" fill="white" fill-opacity="0.01"/>
</g>
<path d="M13.5 8.46017C19.8333 8.46017 26.1667 8.46017 32.5 8.46017C32.9765 3.87856 32.4121 2.53588 32.2825 0.869649C32.0678 -0.668523 31.8447 -1.86545 31.5693 -2.98042C30.9866 -5.30378 30.2147 -7.15927 28.9747 -8.88805C28.342 -9.75437 27.621 -10.5686 26.5384 -11.4431C25.9971 -11.8765 25.3541 -12.3369 24.4445 -12.8496C23.4688 -13.3522 22.5064 -13.9897 19.5711 -14.69C19.5659 -14.6911 19.5608 -14.6922 19.5556 -14.6933C16.8515 -15.269 14.3661 -15.3595 11.4713 -15.133C10.0257 -15.0132 8.52365 -14.8105 6.7462 -14.4703C5.84903 -14.297 4.891 -14.0943 3.68464 -13.7929C2.43198 -13.4464 1.12847 -13.2229 -1.65254 -11.9917C-5.07366 -10.4222 -7.85995 -7.26756 -8.95891 -4.73581C-10.1354 -2.15954 -10.2849 -0.154137 -10.2696 1.46088C-10.1603 4.66433 -9.29789 6.70237 -8.50084 8.46017C-7.67339 10.2028 -6.83469 12.1961 -5.54641 14.3817C-4.356 16.4016 -2.01936 19.6918 1.59352 20.2215C3.89125 20.4494 4.92735 19.8633 6.19771 19.5098C7.40515 19.108 8.52298 18.688 9.62833 18.3037C11.8362 17.5232 13.9589 16.9204 16.1716 16.4846C16.1851 16.4816 16.1986 16.4786 16.2121 16.4753C16.2121 16.4753 16.2121 16.4753 16.2121 16.4753C15.9614 16.666 25.1508 31.7055 26.5443 30.8453C31.6536 27.438 31.4925 23.6155 29.8823 17.8367C28.8005 14.9544 27.426 10.7909 23.5 8.46017C23.1667 8.46017 22.8333 8.46017 22.5 8.46017C18.3793 8.33048 15.5483 5.99913 13.1844 4.84925C11.0097 3.61534 9.37256 2.64193 8.30635 1.95013C7.77717 1.60098 7.39069 1.31947 7.21392 1.06392C7.05411 0.8013 7.03084 0.59185 7.64204 0.20701C8.41062 -0.272556 16.9395 15.1331 15.9793 15.5028C15.9793 15.5028 15.9793 15.5028 15.9793 15.5028C15.9724 15.5044 15.9657 15.506 15.9592 15.5074C13.8529 15.9163 11.5852 15.8328 9.40044 15.4167C8.30831 15.2045 7.22089 14.9009 6.22441 14.4895C5.72927 14.2836 5.25482 14.0495 4.86312 13.7848C4.49095 13.5301 4.11344 13.1917 4.29634 12.9853C4.5122 12.6802 5.04328 12.6475 5.36888 12.5033C5.71424 12.3626 5.99165 12.0741 6.30599 11.6763C6.9237 10.8687 7.67862 9.77423 8.50084 8.46017C9.30312 7.16122 10.2491 6.11147 11.0288 6.32161C11.3863 6.44658 11.7357 6.97984 11.3838 8.25998C11.0988 9.4973 9.51712 11.5829 7.5424 12.6256C5.78829 13.4823 5.60852 13.5751 5.45479 13.8467C5.3522 14.0785 5.49786 14.286 5.70365 14.4984C6.13303 14.9202 6.83427 15.3419 7.58032 15.7364C9.06994 16.5227 10.9381 17.2083 12.5525 17.555C12.5549 17.5556 12.5574 17.5561 12.5597 17.5566C10.1803 16.9808 9.75717 16.5893 9.2846 16.3458C8.88008 16.0956 8.74005 15.9401 8.67445 15.8183C8.55792 15.5784 8.74842 15.4566 9.00569 15.3232C9.53883 15.0627 10.4308 14.8077 11.3443 14.234C11.7765 13.9524 12.2214 13.6209 12.5847 13.0164C12.7674 12.7087 12.9215 12.3316 13.0389 11.7203C13.1784 11.0897 13.1638 10.282 13.5 8.46017ZM32.5 8.46017H13.5H22.5H23.5H32.5Z" fill="white" fill-opacity="0.01" mask="url(#path-1-inside-1_2103_163)"/>
<defs>
<filter id="filter0_i_2103_163" x="0" y="0" width="23" height="17" filterUnits="userSpaceOnUse" color-interpolation-filters="sRGB">
<feFlood flood-opacity="0" result="BackgroundImageFix"/>
<feBlend mode="normal" in="SourceGraphic" in2="BackgroundImageFix" result="shape"/>
<feColorMatrix in="SourceAlpha" type="matrix" values="0 0 0 0 0 0 0 0 0 0 0 0 0 0 0 0 0 0 127 0" result="hardAlpha"/>
<feOffset/>
<feGaussianBlur stdDeviation="2.5"/>
<feComposite in2="hardAlpha" operator="arithmetic" k2="-1" k3="1"/>
<feColorMatrix type="matrix" values="0 0 0 0 1 0 0 0 0 1 0 0 0 0 1 0 0 0 1 0"/>
<feBlend mode="normal" in2="shape" result="effect1_innerShadow_2103_163"/>
</filter>
</defs>
</svg>
