<svg width="17" height="23" viewBox="0 0 17 23" fill="none" xmlns="http://www.w3.org/2000/svg">
<mask id="path-1-inside-1_2103_165" fill="white">
<path d="M8.46017 -6.35773e-07C6.42229 -6.35773e-07 1.84378 5.0468 1.43332 6.9346C1.02286 8.82239 -0.700987 17.3299 0.31692 20.0551C1.33483 22.7803 5.34143 23 8.46017 23C11.5768 23 15.5855 22.7803 16.6034 20.0551C17.6213 17.3299 16.4064 8.82239 15.996 6.9346C15.5855 5.0468 10.4981 -6.35773e-07 8.46017 -6.35773e-07Z"/>
</mask>
<g filter="url(#filter0_i_2103_165)">
<path d="M8.46017 -6.35773e-07C6.42229 -6.35773e-07 1.84378 5.0468 1.43332 6.9346C1.02286 8.82239 -0.700987 17.3299 0.31692 20.0551C1.33483 22.7803 5.34143 23 8.46017 23C11.5768 23 15.5855 22.7803 16.6034 20.0551C17.6213 17.3299 16.4064 8.82239 15.996 6.9346C15.5855 5.0468 10.4981 -6.35773e-07 8.46017 -6.35773e-07Z" fill="white" fill-opacity="0.01"/>
</g>
<path d="M8.46017 9.5C8.46017 3.16667 8.46017 -3.16667 8.46017 -9.5C3.87856 -9.9765 2.53588 -9.41208 0.869649 -9.28246C-0.668523 -9.06777 -1.86545 -8.84472 -2.98042 -8.56932C-5.30378 -7.9866 -7.15927 -7.21469 -8.88805 -5.97471C-9.75437 -5.34201 -10.5686 -4.62103 -11.4431 -3.53839C-11.8765 -2.99712 -12.3369 -2.35408 -12.8496 -1.44453C-13.3522 -0.468784 -13.9897 0.493576 -14.69 3.42894C-14.6911 3.43405 -14.6922 3.43919 -14.6933 3.44435C-15.269 6.14849 -15.3595 8.6339 -15.133 11.5287C-15.0132 12.9743 -14.8105 14.4764 -14.4703 16.2538C-14.297 17.151 -14.0943 18.109 -13.7929 19.3154C-13.4464 20.568 -13.2229 21.8715 -11.9917 24.6525C-10.4222 28.0737 -7.26756 30.8599 -4.73581 31.9589C-2.15954 33.1354 -0.154137 33.2849 1.46088 33.2696C4.66433 33.1603 6.70237 32.2979 8.46017 31.5008C10.2028 30.6734 12.1961 29.8347 14.3817 28.5464C16.4016 27.356 19.6918 25.0194 20.2215 21.4065C20.4494 19.1088 19.8633 18.0727 19.5098 16.8023C19.108 15.5948 18.688 14.477 18.3037 13.3717C17.5232 11.1638 16.9204 9.04111 16.4846 6.82836C16.4816 6.81487 16.4786 6.8014 16.4753 6.78793C16.4753 6.78793 16.4753 6.78793 16.4753 6.78793C16.666 7.03856 31.7055 -2.15083 30.8453 -3.54433C27.438 -8.65357 23.6155 -8.49247 17.8367 -6.88234C14.9544 -5.80051 10.7909 -4.42604 8.46017 -0.500001C8.46017 -0.166667 8.46017 0.166666 8.46017 0.499999C8.33048 4.62068 5.99913 7.45167 4.84925 9.81563C3.61534 11.9903 2.64193 13.6274 1.95013 14.6937C1.60098 15.2228 1.31947 15.6093 1.06392 15.7861C0.8013 15.9459 0.59185 15.9692 0.20701 15.358C-0.272556 14.5894 15.1331 6.06048 15.5028 7.02071C15.5028 7.02071 15.5028 7.02071 15.5028 7.02071C15.5044 7.0276 15.506 7.03431 15.5074 7.04083C15.9163 9.14713 15.8328 11.4148 15.4167 13.5996C15.2045 14.6917 14.9009 15.7791 14.4895 16.7756C14.2836 17.2707 14.0495 17.7452 13.7848 18.1369C13.5301 18.5091 13.1917 18.8866 12.9853 18.7037C12.6802 18.4878 12.6475 17.9567 12.5033 17.6311C12.3626 17.2858 12.0741 17.0084 11.6763 16.694C10.8687 16.0763 9.77423 15.3214 8.46017 14.4992C7.16122 13.6969 6.11147 12.7509 6.32161 11.9712C6.44658 11.6137 6.97984 11.2643 8.25998 11.6162C9.4973 11.9012 11.5829 13.4829 12.6256 15.4576C13.4823 17.2117 13.5751 17.3915 13.8467 17.5452C14.0785 17.6478 14.286 17.5021 14.4984 17.2964C14.9202 16.867 15.3419 16.1657 15.7364 15.4197C16.5227 13.9301 17.2083 12.0619 17.555 10.4475C17.5556 10.4451 17.5561 10.4426 17.5566 10.4403C16.9808 12.8197 16.5893 13.2428 16.3458 13.7154C16.0956 14.1199 15.9401 14.2599 15.8183 14.3256C15.5784 14.4421 15.4566 14.2516 15.3232 13.9943C15.0627 13.4612 14.8077 12.5692 14.234 11.6557C13.9524 11.2235 13.6209 10.7786 13.0164 10.4153C12.7087 10.2326 12.3316 10.0785 11.7203 9.96112C11.0897 9.82159 10.282 9.83618 8.46017 9.5ZM8.46017 -9.5V9.5V0.499999V-0.500001V-9.5Z" fill="white" fill-opacity="0.01" mask="url(#path-1-inside-1_2103_165)"/>
<defs>
<filter id="filter0_i_2103_165" x="0" y="0" width="17" height="23" filterUnits="userSpaceOnUse" color-interpolation-filters="sRGB">
<feFlood flood-opacity="0" result="BackgroundImageFix"/>
<feBlend mode="normal" in="SourceGraphic" in2="BackgroundImageFix" result="shape"/>
<feColorMatrix in="SourceAlpha" type="matrix" values="0 0 0 0 0 0 0 0 0 0 0 0 0 0 0 0 0 0 127 0" result="hardAlpha"/>
<feOffset/>
<feGaussianBlur stdDeviation="2.5"/>
<feComposite in2="hardAlpha" operator="arithmetic" k2="-1" k3="1"/>
<feColorMatrix type="matrix" values="0 0 0 0 1 0 0 0 0 1 0 0 0 0 1 0 0 0 1 0"/>
<feBlend mode="normal" in2="shape" result="effect1_innerShadow_2103_165"/>
</filter>
</defs>
</svg>
