<svg width="20" height="20" viewBox="0 0 20 20" fill="none" xmlns="http://www.w3.org/2000/svg">
<g clip-path="url(#clip0_1_432)">
<path d="M9.99902 0.5C15.2454 0.5 19.499 4.75327 19.499 10C19.499 15.2467 15.2454 19.5 9.99902 19.5C4.75284 19.4997 0.5 15.2466 0.5 10C0.5 4.75343 4.75284 0.500258 9.99902 0.5Z" stroke="white"/>
<path d="M12.5206 10.7598C12.9405 10.7598 13.2924 10.5898 13.5383 10.2689C13.8042 9.92202 13.9441 9.40218 13.9441 8.76537C13.9441 6.92292 13.3193 6.11817 11.372 5.45037C10.7552 5.24143 9.36772 4.81056 8.32509 4.59962V14.7226L10.3824 15.3754V6.84595C10.3824 6.31811 10.6783 5.9912 11.0551 6.11617C11.6189 6.27212 11.6189 6.91093 11.6189 7.15185V10.5448C11.9388 10.6868 12.2417 10.7598 12.5206 10.7598Z" fill="white"/>
<path d="M16.9871 12.8691C17.076 12.7572 17.104 12.6412 17.069 12.5262C17.026 12.3853 16.8421 12.1134 16.1044 11.8794C15.1867 11.5315 13.9281 11.3856 12.8975 11.4966C11.9028 11.6065 11.1821 11.8584 11.1741 11.8614L11.1291 11.8764V12.9721L13.4533 12.1534C13.8991 11.9934 14.5889 11.9574 14.9618 12.0794C15.2297 12.1673 15.2876 12.3083 15.2886 12.4113C15.2896 12.5342 15.2097 12.7092 14.8188 12.8491L11.1291 14.1647V15.2094L16.0774 13.433C16.0834 13.431 16.7341 13.188 16.9871 12.8691Z" fill="white"/>
<path d="M7.56836 10.9267L4.38947 12.0567C4.37847 12.0607 3.58675 12.3237 3.12991 12.6617C2.96797 12.7817 2.89499 12.9297 2.92198 13.0787C2.97296 13.3567 3.33684 13.6157 3.89364 13.7727C5.05823 14.1577 6.27981 14.2557 7.46039 14.0617L7.56736 14.0437V13.1597L6.60269 13.5097C6.15685 13.6697 5.46609 13.7057 5.09322 13.5837C4.82532 13.4957 4.76734 13.3547 4.76634 13.2517C4.76434 13.1287 4.84531 12.9537 5.23717 12.8127L7.56836 11.9777V10.9267Z" fill="white"/>
</g>
<defs>
<clipPath id="clip0_1_432">
<rect width="20" height="20" fill="white"/>
</clipPath>
</defs>
</svg>
