<svg width="81" height="44" viewBox="0 0 81 44" fill="none" xmlns="http://www.w3.org/2000/svg">
<g filter="url(#filter0_i_2103_90)">
<rect width="81" height="44" rx="4" fill="white" fill-opacity="0.01"/>
</g>
<rect x="0.5" y="0.5" width="80" height="43" rx="3.5" stroke="#FBFDFF" stroke-opacity="0.01"/>
<rect x="10" y="15" width="2" height="2" rx="1" fill="#FBFDFF" fill-opacity="0.05"/>
<rect x="10.5" y="15.5" width="1" height="1" rx="0.5" stroke="#FBFDFF" stroke-opacity="0.05"/>
<rect x="10" y="22" width="2" height="2" rx="1" fill="#FBFDFF" fill-opacity="0.05"/>
<rect x="10.5" y="22.5" width="1" height="1" rx="0.5" stroke="#FBFDFF" stroke-opacity="0.05"/>
<rect x="10" y="29" width="2" height="2" rx="1" fill="#FBFDFF" fill-opacity="0.05"/>
<rect x="10.5" y="29.5" width="1" height="1" rx="0.5" stroke="#FBFDFF" stroke-opacity="0.05"/>
<rect x="10" y="36" width="2" height="2" rx="1" fill="#FBFDFF" fill-opacity="0.05"/>
<rect x="10.5" y="36.5" width="1" height="1" rx="0.5" stroke="#FBFDFF" stroke-opacity="0.05"/>
<rect x="16" y="15" width="2" height="2" rx="1" fill="#FBFDFF" fill-opacity="0.05"/>
<rect x="16.5" y="15.5" width="1" height="1" rx="0.5" stroke="#FBFDFF" stroke-opacity="0.05"/>
<rect x="16" y="22" width="2" height="2" rx="1" fill="#FBFDFF" fill-opacity="0.05"/>
<rect x="16.5" y="22.5" width="1" height="1" rx="0.5" stroke="#FBFDFF" stroke-opacity="0.05"/>
<rect x="16" y="29" width="2" height="2" rx="1" fill="#FBFDFF" fill-opacity="0.05"/>
<rect x="16.5" y="29.5" width="1" height="1" rx="0.5" stroke="#FBFDFF" stroke-opacity="0.05"/>
<rect x="16" y="36" width="2" height="2" rx="1" fill="#FBFDFF" fill-opacity="0.05"/>
<rect x="16.5" y="36.5" width="1" height="1" rx="0.5" stroke="#FBFDFF" stroke-opacity="0.05"/>
<rect x="22" y="15" width="2" height="2" rx="1" fill="#FBFDFF" fill-opacity="0.05"/>
<rect x="22.5" y="15.5" width="1" height="1" rx="0.5" stroke="#FBFDFF" stroke-opacity="0.05"/>
<rect x="22" y="22" width="2" height="2" rx="1" fill="#FBFDFF" fill-opacity="0.05"/>
<rect x="22.5" y="22.5" width="1" height="1" rx="0.5" stroke="#FBFDFF" stroke-opacity="0.05"/>
<rect x="22" y="29" width="2" height="2" rx="1" fill="#FBFDFF" fill-opacity="0.05"/>
<rect x="22.5" y="29.5" width="1" height="1" rx="0.5" stroke="#FBFDFF" stroke-opacity="0.05"/>
<rect x="22" y="36" width="2" height="2" rx="1" fill="#FBFDFF" fill-opacity="0.05"/>
<rect x="22.5" y="36.5" width="1" height="1" rx="0.5" stroke="#FBFDFF" stroke-opacity="0.05"/>
<rect x="28" y="15" width="2" height="2" rx="1" fill="#FBFDFF" fill-opacity="0.05"/>
<rect x="28.5" y="15.5" width="1" height="1" rx="0.5" stroke="#FBFDFF" stroke-opacity="0.05"/>
<rect x="28" y="22" width="2" height="2" rx="1" fill="#FBFDFF" fill-opacity="0.05"/>
<rect x="28.5" y="22.5" width="1" height="1" rx="0.5" stroke="#FBFDFF" stroke-opacity="0.05"/>
<rect x="28" y="29" width="2" height="2" rx="1" fill="#FBFDFF" fill-opacity="0.05"/>
<rect x="28.5" y="29.5" width="1" height="1" rx="0.5" stroke="#FBFDFF" stroke-opacity="0.05"/>
<rect x="28" y="36" width="2" height="2" rx="1" fill="#FBFDFF" fill-opacity="0.05"/>
<rect x="28.5" y="36.5" width="1" height="1" rx="0.5" stroke="#FBFDFF" stroke-opacity="0.05"/>
<rect x="34" y="15" width="2" height="2" rx="1" fill="#FBFDFF" fill-opacity="0.05"/>
<rect x="34.5" y="15.5" width="1" height="1" rx="0.5" stroke="#FBFDFF" stroke-opacity="0.05"/>
<rect x="34" y="22" width="2" height="2" rx="1" fill="#FBFDFF" fill-opacity="0.05"/>
<rect x="34.5" y="22.5" width="1" height="1" rx="0.5" stroke="#FBFDFF" stroke-opacity="0.05"/>
<rect x="34" y="29" width="2" height="2" rx="1" fill="#FBFDFF" fill-opacity="0.05"/>
<rect x="34.5" y="29.5" width="1" height="1" rx="0.5" stroke="#FBFDFF" stroke-opacity="0.05"/>
<rect x="34" y="36" width="2" height="2" rx="1" fill="#FBFDFF" fill-opacity="0.05"/>
<rect x="34.5" y="36.5" width="1" height="1" rx="0.5" stroke="#FBFDFF" stroke-opacity="0.05"/>
<rect x="40" y="15" width="2" height="2" rx="1" fill="#FBFDFF" fill-opacity="0.05"/>
<rect x="40.5" y="15.5" width="1" height="1" rx="0.5" stroke="#FBFDFF" stroke-opacity="0.05"/>
<rect x="40" y="22" width="2" height="2" rx="1" fill="#FBFDFF" fill-opacity="0.05"/>
<rect x="40.5" y="22.5" width="1" height="1" rx="0.5" stroke="#FBFDFF" stroke-opacity="0.05"/>
<rect x="40" y="29" width="2" height="2" rx="1" fill="#FBFDFF" fill-opacity="0.05"/>
<rect x="40.5" y="29.5" width="1" height="1" rx="0.5" stroke="#FBFDFF" stroke-opacity="0.05"/>
<rect x="40" y="36" width="2" height="2" rx="1" fill="#FBFDFF" fill-opacity="0.05"/>
<rect x="40.5" y="36.5" width="1" height="1" rx="0.5" stroke="#FBFDFF" stroke-opacity="0.05"/>
<rect x="46" y="15" width="2" height="2" rx="1" fill="#FBFDFF" fill-opacity="0.05"/>
<rect x="46.5" y="15.5" width="1" height="1" rx="0.5" stroke="#FBFDFF" stroke-opacity="0.05"/>
<rect x="46" y="22" width="2" height="2" rx="1" fill="#FBFDFF" fill-opacity="0.05"/>
<rect x="46.5" y="22.5" width="1" height="1" rx="0.5" stroke="#FBFDFF" stroke-opacity="0.05"/>
<rect x="46" y="29" width="2" height="2" rx="1" fill="#FBFDFF" fill-opacity="0.05"/>
<rect x="46.5" y="29.5" width="1" height="1" rx="0.5" stroke="#FBFDFF" stroke-opacity="0.05"/>
<rect x="46" y="36" width="2" height="2" rx="1" fill="#FBFDFF" fill-opacity="0.05"/>
<rect x="46.5" y="36.5" width="1" height="1" rx="0.5" stroke="#FBFDFF" stroke-opacity="0.05"/>
<rect x="52" y="15" width="2" height="2" rx="1" fill="#FBFDFF" fill-opacity="0.05"/>
<rect x="52.5" y="15.5" width="1" height="1" rx="0.5" stroke="#FBFDFF" stroke-opacity="0.05"/>
<rect x="52" y="22" width="2" height="2" rx="1" fill="#FBFDFF" fill-opacity="0.05"/>
<rect x="52.5" y="22.5" width="1" height="1" rx="0.5" stroke="#FBFDFF" stroke-opacity="0.05"/>
<rect x="52" y="29" width="2" height="2" rx="1" fill="#FBFDFF" fill-opacity="0.05"/>
<rect x="52.5" y="29.5" width="1" height="1" rx="0.5" stroke="#FBFDFF" stroke-opacity="0.05"/>
<rect x="52" y="36" width="2" height="2" rx="1" fill="#FBFDFF" fill-opacity="0.05"/>
<rect x="52.5" y="36.5" width="1" height="1" rx="0.5" stroke="#FBFDFF" stroke-opacity="0.05"/>
<rect x="58" y="15" width="2" height="2" rx="1" fill="#FBFDFF" fill-opacity="0.05"/>
<rect x="58.5" y="15.5" width="1" height="1" rx="0.5" stroke="#FBFDFF" stroke-opacity="0.05"/>
<rect x="58" y="22" width="2" height="2" rx="1" fill="#FBFDFF" fill-opacity="0.05"/>
<rect x="58.5" y="22.5" width="1" height="1" rx="0.5" stroke="#FBFDFF" stroke-opacity="0.05"/>
<rect x="58" y="29" width="2" height="2" rx="1" fill="#FBFDFF" fill-opacity="0.05"/>
<rect x="58.5" y="29.5" width="1" height="1" rx="0.5" stroke="#FBFDFF" stroke-opacity="0.05"/>
<rect x="58" y="36" width="2" height="2" rx="1" fill="#FBFDFF" fill-opacity="0.05"/>
<rect x="58.5" y="36.5" width="1" height="1" rx="0.5" stroke="#FBFDFF" stroke-opacity="0.05"/>
<rect x="64" y="15" width="2" height="2" rx="1" fill="#FBFDFF" fill-opacity="0.05"/>
<rect x="64.5" y="15.5" width="1" height="1" rx="0.5" stroke="#FBFDFF" stroke-opacity="0.05"/>
<rect x="64" y="22" width="2" height="2" rx="1" fill="#FBFDFF" fill-opacity="0.05"/>
<rect x="64.5" y="22.5" width="1" height="1" rx="0.5" stroke="#FBFDFF" stroke-opacity="0.05"/>
<rect x="64" y="29" width="2" height="2" rx="1" fill="#FBFDFF" fill-opacity="0.05"/>
<rect x="64.5" y="29.5" width="1" height="1" rx="0.5" stroke="#FBFDFF" stroke-opacity="0.05"/>
<rect x="64" y="36" width="2" height="2" rx="1" fill="#FBFDFF" fill-opacity="0.05"/>
<rect x="64.5" y="36.5" width="1" height="1" rx="0.5" stroke="#FBFDFF" stroke-opacity="0.05"/>
<rect x="70" y="15" width="2" height="2" rx="1" fill="#FBFDFF" fill-opacity="0.05"/>
<rect x="70.5" y="15.5" width="1" height="1" rx="0.5" stroke="#FBFDFF" stroke-opacity="0.05"/>
<rect x="70" y="22" width="2" height="2" rx="1" fill="#FBFDFF" fill-opacity="0.05"/>
<rect x="70.5" y="22.5" width="1" height="1" rx="0.5" stroke="#FBFDFF" stroke-opacity="0.05"/>
<rect x="70" y="29" width="2" height="2" rx="1" fill="#FBFDFF" fill-opacity="0.05"/>
<rect x="70.5" y="29.5" width="1" height="1" rx="0.5" stroke="#FBFDFF" stroke-opacity="0.05"/>
<rect x="70" y="36" width="2" height="2" rx="1" fill="#FBFDFF" fill-opacity="0.05"/>
<rect x="70.5" y="36.5" width="1" height="1" rx="0.5" stroke="#FBFDFF" stroke-opacity="0.05"/>
<defs>
<filter id="filter0_i_2103_90" x="0" y="0" width="81" height="45" filterUnits="userSpaceOnUse" color-interpolation-filters="sRGB">
<feFlood flood-opacity="0" result="BackgroundImageFix"/>
<feBlend mode="normal" in="SourceGraphic" in2="BackgroundImageFix" result="shape"/>
<feColorMatrix in="SourceAlpha" type="matrix" values="0 0 0 0 0 0 0 0 0 0 0 0 0 0 0 0 0 0 127 0" result="hardAlpha"/>
<feOffset dy="1"/>
<feGaussianBlur stdDeviation="2.5"/>
<feComposite in2="hardAlpha" operator="arithmetic" k2="-1" k3="1"/>
<feColorMatrix type="matrix" values="0 0 0 0 0.985577 0 0 0 0 0.991048 0 0 0 0 1 0 0 0 1 0"/>
<feBlend mode="normal" in2="shape" result="effect1_innerShadow_2103_90"/>
</filter>
</defs>
</svg>
