<svg width="44" height="44" viewBox="0 0 44 44" fill="none" xmlns="http://www.w3.org/2000/svg">
<path d="M35.2798 14.1064C39.56 21.5199 37.0199 30.9996 29.6064 35.2798L18.3481 41.7798C17.1523 42.4702 15.6234 42.0605 14.933 40.8647L1.93301 18.3481C1.24266 17.1523 1.65234 15.6234 2.84808 14.933L14.1064 8.43301C21.5199 4.15281 30.9996 6.69287 35.2798 14.1064Z" stroke="#CECECE" stroke-opacity="0.5"/>
<path d="M15.3981 26.8569V18.1296H18.8413C19.5004 18.1296 20.0629 18.2475 20.5288 18.4833C20.9976 18.7163 21.3541 19.0472 21.5984 19.4762C21.8456 19.9024 21.9691 20.4038 21.9691 20.9805C21.9691 21.56 21.8441 22.0586 21.5941 22.4762C21.3441 22.891 20.9819 23.2092 20.5075 23.4308C20.0359 23.6524 19.4649 23.7632 18.7944 23.7632H16.489V22.2802H18.4961C18.8484 22.2802 19.141 22.2319 19.374 22.1353C19.6069 22.0387 19.7802 21.8938 19.8939 21.7007C20.0103 21.5075 20.0686 21.2674 20.0686 20.9805C20.0686 20.6907 20.0103 20.4464 19.8939 20.2475C19.7802 20.0487 19.6055 19.8981 19.3697 19.7958C19.1368 19.6907 18.8427 19.6382 18.4876 19.6382H17.2433V26.8569H15.3981ZM20.1112 22.8853L22.2802 26.8569H20.2433L18.1211 22.8853H20.1112ZM23.222 26.8569V25.5274L26.3285 22.6509C26.5927 22.3953 26.8143 22.1651 26.9933 21.9606C27.1751 21.7561 27.3129 21.5558 27.4066 21.3597C27.5004 21.1609 27.5473 20.9464 27.5473 20.7163C27.5473 20.4606 27.489 20.2404 27.3726 20.0558C27.2561 19.8683 27.097 19.7248 26.8953 19.6254C26.6936 19.5231 26.4649 19.472 26.2092 19.472C25.9422 19.472 25.7092 19.5259 25.5103 19.6339C25.3115 19.7418 25.1581 19.8967 25.0501 20.0984C24.9422 20.3001 24.8882 20.5401 24.8882 20.8186H23.1368C23.1368 20.2475 23.266 19.7518 23.5245 19.3313C23.7831 18.9109 24.1453 18.5856 24.6112 18.3555C25.0771 18.1254 25.614 18.0103 26.222 18.0103C26.847 18.0103 27.391 18.1211 27.8541 18.3427C28.32 18.5614 28.6822 18.8654 28.9407 19.2546C29.1993 19.6438 29.3285 20.0899 29.3285 20.5927C29.3285 20.9222 29.2632 21.2475 29.1325 21.5686C29.0047 21.8896 28.776 22.2461 28.4464 22.6382C28.1169 23.0274 27.6524 23.4947 27.053 24.0401L25.7788 25.2887V25.3484H29.4436V26.8569H23.222Z" fill="#EFEFEF" fill-opacity="0.7"/>
</svg>
