<svg width="44" height="44" viewBox="0 0 44 44" fill="none" xmlns="http://www.w3.org/2000/svg">
<path d="M8.43301 29.6064C4.15281 22.1929 6.69287 12.7132 14.1064 8.43303L25.3647 1.93303C26.5605 1.24267 28.0894 1.65236 28.7798 2.84809L41.7798 25.3648C42.4702 26.5605 42.0605 28.0895 40.8647 28.7798L29.6064 35.2798C22.1929 39.56 12.7132 37.02 8.43301 29.6064Z" stroke="#CECECE" stroke-opacity="0.5"/>
<path d="M17.2419 25.8569V17.1296H20.685C21.3441 17.1296 21.9066 17.2475 22.3725 17.4833C22.8413 17.7163 23.1978 18.0472 23.4421 18.4762C23.6893 18.9024 23.8129 19.4038 23.8129 19.9805C23.8129 20.56 23.6879 21.0586 23.4379 21.4762C23.1879 21.891 22.8257 22.2092 22.3512 22.4308C21.8796 22.6524 21.3086 22.7632 20.6382 22.7632H18.3328V21.2802H20.3399C20.6921 21.2802 20.9848 21.2319 21.2177 21.1353C21.4507 21.0387 21.624 20.8938 21.7376 20.7007C21.8541 20.5075 21.9123 20.2674 21.9123 19.9805C21.9123 19.6907 21.8541 19.4464 21.7376 19.2475C21.624 19.0487 21.4492 18.8981 21.2135 18.7958C20.9805 18.6907 20.6865 18.6382 20.3313 18.6382H19.087V25.8569H17.2419ZM21.9549 21.8853L24.124 25.8569H22.087L19.9649 21.8853H21.9549ZM28.8626 17.1296V25.8569H27.0174V18.8811H26.9663L24.9677 20.1339V18.4975L27.1282 17.1296H28.8626Z" fill="#EFEFEF" fill-opacity="0.7"/>
</svg>
