<svg width="20" height="25" viewBox="0 0 20 25" fill="none" xmlns="http://www.w3.org/2000/svg">
<path d="M10 5.5C12.4371 5.5 14.5 7.71245 14.5 10.5557V19.4434C14.5 22.2867 12.437 24.5 10 24.5C7.56291 24.5 5.5 22.2876 5.5 19.4434V10.5557C5.5 7.71339 7.56291 5.5 10 5.5Z" stroke="white"/>
<mask id="path-2-inside-1_2109_174" fill="white">
<path d="M2.73714 1.49245C2.71414 1.26042 2.62713 1.0864 2.47912 0.972353C2.33112 0.858306 2.10811 0.801282 1.81109 0.801282C1.26306 0.801282 0.990049 0.986118 0.990049 1.35481C0.990049 1.48753 1.04705 1.59863 1.16006 1.68613C1.27306 1.77462 1.45607 1.84934 1.70709 1.90931C2.0041 1.97715 2.26211 2.04204 2.48012 2.10103C2.69813 2.16002 2.89714 2.22884 3.07915 2.30651C3.18116 2.34879 3.27616 2.39893 3.36617 2.46185C3.45817 2.52379 3.53418 2.5995 3.59618 2.69093C3.65918 2.78138 3.71019 2.8915 3.74619 3.01931C3.78419 3.14712 3.80219 3.30246 3.80219 3.48533C3.80219 3.70458 3.75619 3.89826 3.66318 4.06737C3.56918 4.23549 3.44417 4.37805 3.28716 4.49504C3.12916 4.61106 2.94315 4.70053 2.72914 4.76148C2.51713 4.82342 2.29111 4.8539 2.0541 4.8539C1.38107 4.8539 0.876044 4.72609 0.536027 4.47047C0.19801 4.21582 0.0190009 3.83632 0 3.33392H0.933047C0.939047 3.56693 1.03505 3.75079 1.22206 3.88548C1.41007 4.02017 1.64608 4.08703 1.9291 4.08703C2.23611 4.08703 2.46812 4.03296 2.62613 3.92382C2.78314 3.81371 2.86214 3.66525 2.86214 3.47845C2.86214 3.40569 2.85214 3.33786 2.83414 3.27592C2.81614 3.21398 2.78014 3.15892 2.72714 3.10779C2.67313 3.05864 2.59913 3.01439 2.50713 2.97507C2.41512 2.93574 2.29411 2.90035 2.14511 2.86888C1.79209 2.79613 1.48607 2.72239 1.22906 2.64571C0.972049 2.57098 0.759038 2.47758 0.59303 2.3655C0.425021 2.25342 0.302015 2.11774 0.224011 1.95749C0.144007 1.79821 0.105005 1.5947 0.105005 1.34891C0.105005 1.1621 0.140007 0.986118 0.20901 0.820945C0.278014 0.656756 0.386019 0.514197 0.528026 0.393267C0.673034 0.272338 0.850042 0.17697 1.06105 0.106182C1.27206 0.0353941 1.52208 0 1.81109 0C2.0891 0 2.34012 0.0353941 2.56313 0.106182C2.78614 0.17697 2.97815 0.277253 3.13816 0.407032C3.29716 0.537793 3.42117 0.6951 3.51018 0.878952C3.59818 1.06379 3.64718 1.26829 3.65618 1.49245H2.73714V1.49245Z"/>
</mask>
<path d="M2.73714 1.49245C2.71414 1.26042 2.62713 1.0864 2.47912 0.972353C2.33112 0.858306 2.10811 0.801282 1.81109 0.801282C1.26306 0.801282 0.990049 0.986118 0.990049 1.35481C0.990049 1.48753 1.04705 1.59863 1.16006 1.68613C1.27306 1.77462 1.45607 1.84934 1.70709 1.90931C2.0041 1.97715 2.26211 2.04204 2.48012 2.10103C2.69813 2.16002 2.89714 2.22884 3.07915 2.30651C3.18116 2.34879 3.27616 2.39893 3.36617 2.46185C3.45817 2.52379 3.53418 2.5995 3.59618 2.69093C3.65918 2.78138 3.71019 2.8915 3.74619 3.01931C3.78419 3.14712 3.80219 3.30246 3.80219 3.48533C3.80219 3.70458 3.75619 3.89826 3.66318 4.06737C3.56918 4.23549 3.44417 4.37805 3.28716 4.49504C3.12916 4.61106 2.94315 4.70053 2.72914 4.76148C2.51713 4.82342 2.29111 4.8539 2.0541 4.8539C1.38107 4.8539 0.876044 4.72609 0.536027 4.47047C0.19801 4.21582 0.0190009 3.83632 0 3.33392H0.933047C0.939047 3.56693 1.03505 3.75079 1.22206 3.88548C1.41007 4.02017 1.64608 4.08703 1.9291 4.08703C2.23611 4.08703 2.46812 4.03296 2.62613 3.92382C2.78314 3.81371 2.86214 3.66525 2.86214 3.47845C2.86214 3.40569 2.85214 3.33786 2.83414 3.27592C2.81614 3.21398 2.78014 3.15892 2.72714 3.10779C2.67313 3.05864 2.59913 3.01439 2.50713 2.97507C2.41512 2.93574 2.29411 2.90035 2.14511 2.86888C1.79209 2.79613 1.48607 2.72239 1.22906 2.64571C0.972049 2.57098 0.759038 2.47758 0.59303 2.3655C0.425021 2.25342 0.302015 2.11774 0.224011 1.95749C0.144007 1.79821 0.105005 1.5947 0.105005 1.34891C0.105005 1.1621 0.140007 0.986118 0.20901 0.820945C0.278014 0.656756 0.386019 0.514197 0.528026 0.393267C0.673034 0.272338 0.850042 0.17697 1.06105 0.106182C1.27206 0.0353941 1.52208 0 1.81109 0C2.0891 0 2.34012 0.0353941 2.56313 0.106182C2.78614 0.17697 2.97815 0.277253 3.13816 0.407032C3.29716 0.537793 3.42117 0.6951 3.51018 0.878952C3.59818 1.06379 3.64718 1.26829 3.65618 1.49245H2.73714V1.49245Z" fill="#AFC1D1"/>
<path d="M1.16006 1.68613L1.77657 0.898772L1.77229 0.895456L1.16006 1.68613ZM1.70709 1.90931L1.47469 2.88198L1.48442 2.88421L1.70709 1.90931ZM3.07915 2.30651L2.68664 3.22632L2.69628 3.23031L3.07915 2.30651ZM3.36617 2.46185L2.7932 3.28143L2.80041 3.28647L2.80771 3.29138L3.36617 2.46185ZM3.59618 2.69093L2.76846 3.25222L2.77562 3.26249L3.59618 2.69093ZM3.74619 3.01931L2.78364 3.29044L2.7856 3.29739L2.78766 3.30431L3.74619 3.01931ZM3.66318 4.06737L4.53603 4.55541L4.53941 4.54927L3.66318 4.06737ZM3.28716 4.49504L3.87901 5.30113L3.88468 5.2969L3.28716 4.49504ZM2.72914 4.76148L2.4552 3.79971L2.44871 3.80161L2.72914 4.76148ZM0.536027 4.47047L-0.0656778 5.26918L-0.064892 5.26978L0.536027 4.47047ZM0 3.33392V2.33392H-1.03854L-0.999286 3.37172L0 3.33392ZM0.933047 3.33392L1.93272 3.30818L1.90763 2.33392H0.933047V3.33392ZM1.22206 3.88548L0.637619 4.69692L0.639674 4.69839L1.22206 3.88548ZM2.62613 3.92382L3.19445 4.74667L3.20033 4.74254L2.62613 3.92382ZM2.72714 3.10779L3.42138 2.38805L3.41098 2.37802L3.4003 2.3683L2.72714 3.10779ZM2.14511 2.86888L2.35169 1.89044L2.34696 1.88947L2.14511 2.86888ZM1.22906 2.64571L1.51499 1.68743L1.50823 1.68546L1.22906 2.64571ZM0.59303 2.3655L1.1526 1.5367L1.14799 1.53362L0.59303 2.3655ZM0.224011 1.95749L1.12323 1.5198L1.11761 1.50863L0.224011 1.95749ZM0.20901 0.820945L-0.712885 0.433502L-0.713706 0.435465L0.20901 0.820945ZM0.528026 0.393267L-0.112474 -0.374759L-0.120318 -0.36808L0.528026 0.393267ZM3.13816 0.407032L3.77334 -0.36536L3.76808 -0.369624L3.13816 0.407032ZM3.51018 0.878952L4.41308 0.44906L4.41025 0.443218L3.51018 0.878952ZM3.65618 1.49245V2.49245H4.69714L4.65538 1.45233L3.65618 1.49245ZM2.73714 1.49245L3.73226 1.3938C3.68889 0.956267 3.50516 0.500529 3.08949 0.180236L2.47912 0.972353L1.86876 1.76447C1.81852 1.72576 1.78155 1.67756 1.75953 1.63326C1.73939 1.59275 1.74021 1.57285 1.74201 1.5911L2.73714 1.49245ZM2.47912 0.972353L3.08949 0.180236C2.68988 -0.127689 2.20719 -0.198718 1.81109 -0.198718V0.801282V1.80128C1.85371 1.80128 1.88662 1.80335 1.91093 1.80601C1.93531 1.80869 1.94868 1.81171 1.953 1.81281C1.96253 1.81525 1.92418 1.80718 1.86876 1.76447L2.47912 0.972353ZM1.81109 0.801282V-0.198718C1.45607 -0.198718 1.01416 -0.144557 0.635653 0.110892C0.187056 0.413643 -0.00995054 0.884521 -0.00995054 1.35481H0.990049H1.99005C1.99005 1.38643 1.9838 1.46261 1.93791 1.55553C1.88986 1.65285 1.81995 1.72448 1.75447 1.76868C1.69561 1.8084 1.65792 1.8145 1.67103 1.81155C1.6839 1.80866 1.72713 1.80128 1.81109 1.80128V0.801282ZM0.990049 1.35481H-0.00995054C-0.00995054 1.82329 0.211892 2.21669 0.547825 2.47681L1.16006 1.68613L1.77229 0.895456C1.81463 0.928236 1.8747 0.987958 1.92239 1.08091C1.9712 1.17605 1.99005 1.27305 1.99005 1.35481H0.990049ZM1.16006 1.68613L0.543551 2.47348C0.826886 2.69534 1.1777 2.81098 1.4747 2.88194L1.70709 1.90931L1.93947 0.936689C1.84947 0.915185 1.79193 0.895712 1.75964 0.882534C1.72445 0.868175 1.73885 0.869256 1.77656 0.898784L1.16006 1.68613ZM1.70709 1.90931L1.48442 2.88421C1.76916 2.94924 2.01431 3.01095 2.21893 3.06632L2.48012 2.10103L2.74131 1.13574C2.50992 1.07313 2.23904 1.00506 1.92975 0.934418L1.70709 1.90931ZM2.48012 2.10103L2.21893 3.06632C2.39576 3.11416 2.5506 3.1682 2.68666 3.22627L3.07915 2.30651L3.47165 1.38676C3.24369 1.28948 3.00051 1.20588 2.74131 1.13574L2.48012 2.10103ZM3.07915 2.30651L2.69628 3.23031C2.74163 3.24911 2.77109 3.26597 2.7932 3.28143L3.36617 2.46185L3.93914 1.64228C3.78124 1.53189 3.62068 1.44847 3.46203 1.38271L3.07915 2.30651ZM3.36617 2.46185L2.80771 3.29138C2.8025 3.28788 2.79495 3.28203 2.78675 3.27386C2.77854 3.26569 2.77243 3.25792 2.76853 3.25217L3.59618 2.69093L4.42383 2.12969C4.28981 1.93206 4.12231 1.7654 3.92463 1.63232L3.36617 2.46185ZM3.59618 2.69093L2.77562 3.26249C2.76617 3.24893 2.77346 3.25429 2.78364 3.29044L3.74619 3.01931L4.70873 2.74818C4.64691 2.5287 4.55219 2.31384 4.41674 2.11938L3.59618 2.69093ZM3.74619 3.01931L2.78766 3.30431C2.78757 3.304 2.78859 3.30741 2.79014 3.31519C2.79168 3.32296 2.79361 3.33439 2.79546 3.34994C2.79922 3.38157 2.80219 3.42594 2.80219 3.48533H3.80219H4.80219C4.80219 3.24405 4.7793 2.98516 4.70472 2.73431L3.74619 3.01931ZM3.80219 3.48533H2.80219C2.80219 3.56068 2.78768 3.58415 2.78696 3.58546L3.66318 4.06737L4.53941 4.54927C4.72469 4.21238 4.80219 3.84848 4.80219 3.48533H3.80219ZM3.66318 4.06737L2.79036 3.57933C2.76553 3.62374 2.73467 3.65964 2.68965 3.69319L3.28716 4.49504L3.88468 5.2969C4.15368 5.09645 4.37283 4.84724 4.53601 4.5554L3.66318 4.06737ZM3.28716 4.49504L2.69533 3.68898C2.64301 3.7274 2.56717 3.76784 2.4552 3.79973L2.72914 4.76148L3.00307 5.72323C3.31913 5.63321 3.6153 5.49472 3.879 5.30111L3.28716 4.49504ZM2.72914 4.76148L2.44871 3.80161C2.33609 3.83451 2.20525 3.8539 2.0541 3.8539V4.8539V5.8539C2.37698 5.8539 2.69816 5.81233 3.00957 5.72136L2.72914 4.76148ZM2.0541 4.8539V3.8539C1.48101 3.8539 1.22914 3.74047 1.13695 3.67116L0.536027 4.47047L-0.064892 5.26978C0.522948 5.71171 1.28113 5.8539 2.0541 5.8539V4.8539ZM0.536027 4.47047L1.13773 3.67175C1.08592 3.63272 1.00929 3.56072 0.999286 3.29613L0 3.33392L-0.999286 3.37172C-0.971291 4.11192 -0.689902 4.79893 -0.0656775 5.26918L0.536027 4.47047ZM0 3.33392V4.33392H0.933047V3.33392V2.33392H0V3.33392ZM0.933047 3.33392L-0.066622 3.35967C-0.0527262 3.89928 0.192386 4.37624 0.637621 4.69692L1.22206 3.88548L1.8065 3.07404C1.82528 3.08757 1.86409 3.12256 1.8956 3.18275C1.92685 3.24243 1.93228 3.29127 1.93272 3.30818L0.933047 3.33392ZM1.22206 3.88548L0.639674 4.69839C1.0337 4.98068 1.4866 5.08703 1.9291 5.08703V4.08703V3.08703C1.86583 3.08703 1.82972 3.07952 1.8137 3.07496C1.79935 3.07088 1.79905 3.0687 1.80445 3.07257L1.22206 3.88548ZM1.9291 4.08703V5.08703C2.32625 5.08703 2.79583 5.02195 3.19443 4.74665L2.62613 3.92382L2.05783 3.101C2.10367 3.06934 2.12865 3.06727 2.10576 3.07263C2.08225 3.07812 2.0269 3.08703 1.9291 3.08703V4.08703ZM2.62613 3.92382L3.20033 4.74254C3.61414 4.45232 3.86214 4.00339 3.86214 3.47845H2.86214H1.86214C1.86214 3.42649 1.8744 3.3465 1.91962 3.26127C1.96422 3.17719 2.01986 3.1276 2.05194 3.10511L2.62613 3.92382ZM2.86214 3.47845H3.86214C3.86214 3.31367 3.83943 3.15175 3.79441 2.99684L2.83414 3.27592L1.87387 3.55499C1.86486 3.52397 1.86214 3.49772 1.86214 3.47845H2.86214ZM2.83414 3.27592L3.79441 2.99684C3.71793 2.73368 3.57211 2.53345 3.42138 2.38805L2.72714 3.10779L2.03289 3.82754C1.98816 3.78439 1.91435 3.69427 1.87387 3.55499L2.83414 3.27592ZM2.72714 3.10779L3.4003 2.3683C3.23682 2.21948 3.05524 2.12183 2.90017 2.05555L2.50713 2.97507L2.11408 3.89459C2.12538 3.89941 2.1248 3.9 2.11568 3.89451C2.10686 3.8892 2.08387 3.87451 2.05398 3.84729L2.72714 3.10779ZM2.50713 2.97507L2.90017 2.05555C2.72508 1.98071 2.53433 1.92902 2.35169 1.89046L2.14511 2.86888L1.93852 3.84731C2.0539 3.87167 2.10516 3.89077 2.11408 3.89459L2.50713 2.97507ZM2.14511 2.86888L2.34696 1.88947C2.01043 1.82011 1.73473 1.75302 1.51498 1.68745L1.22906 2.64571L0.943139 3.60396C1.23742 3.69176 1.57375 3.77215 1.94326 3.8483L2.14511 2.86888ZM1.22906 2.64571L1.50823 1.68546C1.31767 1.63006 1.20787 1.57404 1.15259 1.53671L0.59303 2.3655L0.0334691 3.19429C0.310203 3.38113 0.626429 3.51191 0.949892 3.60595L1.22906 2.64571ZM0.59303 2.3655L1.14799 1.53362C1.12538 1.51854 1.11694 1.50935 1.11623 1.50856C1.11579 1.50808 1.11668 1.50901 1.11828 1.51137C1.11989 1.51374 1.12161 1.51666 1.12316 1.51983L0.224011 1.95749L-0.675133 2.39514C-0.50901 2.73643 -0.256477 3.00088 0.0380704 3.19738L0.59303 2.3655ZM0.224011 1.95749L1.11761 1.50863C1.12497 1.52327 1.12137 1.52176 1.1161 1.49466C1.11076 1.46723 1.10501 1.42016 1.10501 1.34891H0.105005H-0.894995C-0.894995 1.69022 -0.842373 2.06237 -0.66959 2.40635L0.224011 1.95749ZM0.105005 1.34891H1.10501C1.10501 1.29047 1.11525 1.24587 1.13173 1.20643L0.20901 0.820945L-0.713706 0.435465C-0.835236 0.726369 -0.894995 1.03374 -0.894995 1.34891H0.105005ZM0.20901 0.820945L1.1309 1.20839C1.13347 1.20228 1.14166 1.18417 1.17637 1.15461L0.528026 0.393267L-0.120318 -0.36808C-0.369622 -0.155779 -0.577445 0.111236 -0.712883 0.433503L0.20901 0.820945ZM0.528026 0.393267L1.16849 1.16125C1.20284 1.13261 1.26532 1.09243 1.3791 1.05426L1.06105 0.106182L0.743001 -0.841891C0.434766 -0.738487 0.143228 -0.587935 -0.11244 -0.374719L0.528026 0.393267ZM1.06105 0.106182L1.3791 1.05426C1.46221 1.02638 1.5997 1 1.81109 1V0V-1C1.44445 -1 1.08192 -0.955587 0.743001 -0.841891L1.06105 0.106182ZM1.81109 0V1C2.0054 1 2.15198 1.02484 2.26058 1.05932L2.56313 0.106182L2.86567 -0.846953C2.52826 -0.954055 2.17281 -1 1.81109 -1V0ZM2.56313 0.106182L2.26058 1.05932C2.38118 1.0976 2.45815 1.14307 2.50823 1.18369L3.13816 0.407032L3.76808 -0.369624C3.49814 -0.588563 3.1911 -0.743655 2.86567 -0.846953L2.56313 0.106182ZM3.13816 0.407032L2.50299 1.17941C2.55132 1.21915 2.58455 1.26192 2.6101 1.31469L3.51018 0.878952L4.41025 0.443218C4.25779 0.128282 4.04301 -0.143566 3.77332 -0.365343L3.13816 0.407032ZM3.51018 0.878952L2.60729 1.30884C2.63246 1.3617 2.65295 1.43211 2.65699 1.53257L3.65618 1.49245L4.65538 1.45233C4.64141 1.10447 4.5639 0.765873 4.41306 0.449069L3.51018 0.878952ZM3.65618 1.49245V0.492449H2.73714V1.49245V2.49245H3.65618V1.49245Z" fill="white" mask="url(#path-2-inside-1_2109_174)"/>
<mask id="path-4-inside-2_2109_174" fill="white">
<path d="M6.77634 4.69659V2.65652H4.97225V4.69659H4.0052V0.150421H4.97225V1.86113H6.77734V0.150421H7.75239V4.69659H6.77634V4.69659Z"/>
</mask>
<path d="M6.77634 4.69659V2.65652H4.97225V4.69659H4.0052V0.150421H4.97225V1.86113H6.77734V0.150421H7.75239V4.69659H6.77634V4.69659Z" fill="#AFC1D1"/>
<path d="M6.77634 2.65652H7.77634V1.65652H6.77634V2.65652ZM4.97225 2.65652V1.65652H3.97225V2.65652H4.97225ZM4.97225 4.69659V5.69659H5.97225V4.69659H4.97225ZM4.0052 4.69659H3.0052V5.69659H4.0052V4.69659ZM4.0052 0.150421V-0.849579H3.0052V0.150421H4.0052ZM4.97225 0.150421H5.97225V-0.849579H4.97225V0.150421ZM4.97225 1.86113H3.97225V2.86113H4.97225V1.86113ZM6.77734 1.86113V2.86113H7.77734V1.86113H6.77734ZM6.77734 0.150421V-0.849579H5.77734V0.150421H6.77734ZM7.75239 0.150421H8.75239V-0.849579H7.75239V0.150421ZM7.75239 4.69659V5.69659H8.75239V4.69659H7.75239ZM6.77634 4.69659H7.77634V2.65652H6.77634H5.77634V4.69659H6.77634ZM6.77634 2.65652V1.65652H4.97225V2.65652V3.65652H6.77634V2.65652ZM4.97225 2.65652H3.97225V4.69659H4.97225H5.97225V2.65652H4.97225ZM4.97225 4.69659V3.69659H4.0052V4.69659V5.69659H4.97225V4.69659ZM4.0052 4.69659H5.0052V0.150421H4.0052H3.0052V4.69659H4.0052ZM4.0052 0.150421V1.15042H4.97225V0.150421V-0.849579H4.0052V0.150421ZM4.97225 0.150421H3.97225V1.86113H4.97225H5.97225V0.150421H4.97225ZM4.97225 1.86113V2.86113H6.77734V1.86113V0.861134H4.97225V1.86113ZM6.77734 1.86113H7.77734V0.150421H6.77734H5.77734V1.86113H6.77734ZM6.77734 0.150421V1.15042H7.75239V0.150421V-0.849579H6.77734V0.150421ZM7.75239 0.150421H6.75239V4.69659H7.75239H8.75239V0.150421H7.75239ZM7.75239 4.69659V3.69659H6.77634V4.69659V5.69659H7.75239V4.69659Z" fill="white" mask="url(#path-4-inside-2_2109_174)"/>
<path d="M10.3383 0.650421L10.3452 0.670929H9.91156L9.91937 0.650421H10.3383Z" fill="#AFC1D1" stroke="white"/>
<path d="M13.4411 0.650421V0.937531H13.0006V0.650421H13.4411Z" fill="#AFC1D1" stroke="white"/>
<mask id="path-8-inside-3_2109_174" fill="white">
<path d="M16.4898 4.69659V0.150421H19.888V0.944821H17.4309V1.91717H19.696V2.71846H17.4309V3.88843H20V4.69659H16.4898V4.69659Z"/>
</mask>
<path d="M16.4898 4.69659V0.150421H19.888V0.944821H17.4309V1.91717H19.696V2.71846H17.4309V3.88843H20V4.69659H16.4898V4.69659Z" fill="#AFC1D1"/>
<path d="M16.4898 0.150421V-0.849579H15.4898V0.150421H16.4898ZM19.888 0.150421H20.888V-0.849579H19.888V0.150421ZM19.888 0.944821V1.94482H20.888V0.944821H19.888ZM17.4309 0.944821V-0.0551789H16.4309V0.944821H17.4309ZM17.4309 1.91717H16.4309V2.91717H17.4309V1.91717ZM19.696 1.91717H20.696V0.917174H19.696V1.91717ZM19.696 2.71846V3.71846H20.696V2.71846H19.696ZM17.4309 2.71846V1.71846H16.4309V2.71846H17.4309ZM17.4309 3.88843H16.4309V4.88843H17.4309V3.88843ZM20 3.88843H21V2.88843H20V3.88843ZM20 4.69659V5.69659H21V4.69659H20ZM16.4898 4.69659H17.4898V0.150421H16.4898H15.4898V4.69659H16.4898ZM16.4898 0.150421V1.15042H19.888V0.150421V-0.849579H16.4898V0.150421ZM19.888 0.150421H18.888V0.944821H19.888H20.888V0.150421H19.888ZM19.888 0.944821V-0.0551789H17.4309V0.944821V1.94482H19.888V0.944821ZM17.4309 0.944821H16.4309V1.91717H17.4309H18.4309V0.944821H17.4309ZM17.4309 1.91717V2.91717H19.696V1.91717V0.917174H17.4309V1.91717ZM19.696 1.91717H18.696V2.71846H19.696H20.696V1.91717H19.696ZM19.696 2.71846V1.71846H17.4309V2.71846V3.71846H19.696V2.71846ZM17.4309 2.71846H16.4309V3.88843H17.4309H18.4309V2.71846H17.4309ZM17.4309 3.88843V4.88843H20V3.88843V2.88843H17.4309V3.88843ZM20 3.88843H19V4.69659H20H21V3.88843H20ZM20 4.69659V3.69659H16.4898V4.69659V5.69659H20V4.69659Z" fill="white" mask="url(#path-8-inside-3_2109_174)"/>
</svg>
