<svg width="44" height="44" viewBox="0 0 44 44" fill="none" xmlns="http://www.w3.org/2000/svg">
<path d="M8.43301 14.1064C12.7132 6.69287 22.1929 4.15281 29.6064 8.43301L40.8647 14.933C42.0605 15.6234 42.4702 17.1523 41.7798 18.3481L28.7798 40.8647C28.0894 42.0605 26.5605 42.4702 25.3647 41.7798L14.1064 35.2798C6.69287 30.9996 4.15281 21.5199 8.43301 14.1064Z" stroke="#CECECE" stroke-opacity="0.5"/>
<path d="M16.4313 26.8569V18.1296H18.2765V25.3356H22.018V26.8569H16.4313ZM23.1888 26.8569V25.5273L26.2953 22.6509C26.5595 22.3952 26.7811 22.1651 26.9601 21.9606C27.1419 21.756 27.2797 21.5558 27.3734 21.3597C27.4672 21.1609 27.5141 20.9464 27.5141 20.7163C27.5141 20.4606 27.4558 20.2404 27.3394 20.0558C27.2229 19.8683 27.0638 19.7248 26.8621 19.6254C26.6604 19.5231 26.4317 19.4719 26.176 19.4719C25.909 19.4719 25.676 19.5259 25.4771 19.6339C25.2783 19.7418 25.1249 19.8967 25.0169 20.0984C24.909 20.3001 24.855 20.5401 24.855 20.8185H23.1036C23.1036 20.2475 23.2328 19.7518 23.4913 19.3313C23.7499 18.9109 24.1121 18.5856 24.578 18.3555C25.0439 18.1254 25.5808 18.0103 26.1888 18.0103C26.8138 18.0103 27.3578 18.1211 27.8209 18.3427C28.2868 18.5614 28.649 18.8654 28.9075 19.2546C29.1661 19.6438 29.2953 20.0898 29.2953 20.5927C29.2953 20.9222 29.23 21.2475 29.0993 21.5685C28.9715 21.8896 28.7428 22.2461 28.4132 22.6381C28.0837 23.0273 27.6192 23.4947 27.0198 24.0401L25.7456 25.2887V25.3484H29.4104V26.8569H23.1888Z" fill="#EFEFEF" fill-opacity="0.7"/>
</svg>
