<svg width="20" height="25" viewBox="0 0 20 25" fill="none" xmlns="http://www.w3.org/2000/svg">
<mask id="path-1-inside-1_2109_200" fill="white">
<path d="M1.715 3.815C1.164 3.815 0.738 3.653 0.444 3.331C0.146 3.008 0 2.543 0 1.937C0 1.635 0.037 1.365 0.111 1.124C0.187 0.884 0.299 0.68 0.445 0.514C0.591 0.347 0.771 0.219 0.984 0.132C1.195 0.043 1.439 0 1.715 0C1.988 0 2.233 0.043 2.445 0.132C2.658 0.219 2.836 0.348 2.98 0.517C3.123 0.685 3.232 0.89 3.309 1.133C3.385 1.375 3.422 1.648 3.422 1.953C3.422 2.569 3.276 3.035 2.983 3.347C2.69 3.659 2.268 3.815 1.715 3.815ZM1.715 3.174C1.848 3.174 1.975 3.15 2.092 3.101C2.211 3.053 2.315 2.979 2.403 2.881C2.491 2.782 2.559 2.655 2.61 2.501C2.66 2.347 2.684 2.165 2.684 1.953C2.684 1.529 2.602 1.208 2.438 0.99C2.271 0.771 2.031 0.662 1.715 0.662C1.4 0.662 1.158 0.771 0.99 0.99C0.82 1.209 0.736 1.53 0.736 1.953C0.736 2.376 0.822 2.685 0.992 2.881C1.162 3.077 1.404 3.174 1.715 3.174Z"/>
</mask>
<path d="M1.715 3.815C1.164 3.815 0.738 3.653 0.444 3.331C0.146 3.008 0 2.543 0 1.937C0 1.635 0.037 1.365 0.111 1.124C0.187 0.884 0.299 0.68 0.445 0.514C0.591 0.347 0.771 0.219 0.984 0.132C1.195 0.043 1.439 0 1.715 0C1.988 0 2.233 0.043 2.445 0.132C2.658 0.219 2.836 0.348 2.98 0.517C3.123 0.685 3.232 0.89 3.309 1.133C3.385 1.375 3.422 1.648 3.422 1.953C3.422 2.569 3.276 3.035 2.983 3.347C2.69 3.659 2.268 3.815 1.715 3.815ZM1.715 3.174C1.848 3.174 1.975 3.15 2.092 3.101C2.211 3.053 2.315 2.979 2.403 2.881C2.491 2.782 2.559 2.655 2.61 2.501C2.66 2.347 2.684 2.165 2.684 1.953C2.684 1.529 2.602 1.208 2.438 0.99C2.271 0.771 2.031 0.662 1.715 0.662C1.4 0.662 1.158 0.771 0.99 0.99C0.82 1.209 0.736 1.53 0.736 1.953C0.736 2.376 0.822 2.685 0.992 2.881C1.162 3.077 1.404 3.174 1.715 3.174Z" fill="#AFC1D1"/>
<path d="M0.444 3.331L1.1825 2.65672L1.17898 2.65291L0.444 3.331ZM0.111 1.124L-0.842379 0.822097L-0.84495 0.830472L0.111 1.124ZM0.445 0.514L1.1959 1.17443L1.19786 1.17219L0.445 0.514ZM0.984 0.132L1.36215 1.05781L1.37264 1.05339L0.984 0.132ZM2.445 0.132L2.0579 1.05409L2.06687 1.05775L2.445 0.132ZM2.98 0.517L3.74149 -0.131175L3.74116 -0.131563L2.98 0.517ZM3.309 1.133L4.26306 0.833377L4.26229 0.83093L3.309 1.133ZM2.092 3.101L1.71789 2.17352L1.70571 2.17862L2.092 3.101ZM2.403 2.881L3.14706 3.54913L3.15041 3.54536L2.403 2.881ZM2.61 2.501L3.55931 2.81538L3.56112 2.80981L2.61 2.501ZM2.438 0.99L3.23714 0.388815L3.23318 0.383629L2.438 0.99ZM0.99 0.99L1.77995 1.6032L1.78343 1.59866L0.99 0.99ZM1.715 3.815V2.815C1.36531 2.815 1.23924 2.71889 1.18249 2.65673L0.444 3.331L-0.294485 4.00527C0.23676 4.58711 0.962691 4.815 1.715 4.815V3.815ZM0.444 3.331L1.17898 2.65291C1.1094 2.5775 1 2.39285 1 1.937H0H-1C-1 2.69315 -0.817401 3.4385 -0.290978 4.00909L0.444 3.331ZM0 1.937H1C1 1.716 1.02713 1.54723 1.06695 1.41753L0.111 1.124L-0.84495 0.830472C-0.953126 1.18277 -1 1.554 -1 1.937H0ZM0.111 1.124L1.06434 1.42589C1.10388 1.30103 1.15268 1.22356 1.19589 1.17442L0.445 0.514L-0.305893 -0.146424C-0.554676 0.136438 -0.729881 0.466968 -0.842342 0.822108L0.111 1.124ZM0.445 0.514L1.19786 1.17219C1.23866 1.12551 1.28915 1.08756 1.36213 1.05775L0.984 0.132L0.605875 -0.793755C0.252845 -0.649559 -0.0566576 -0.431515 -0.307856 -0.144185L0.445 0.514ZM0.984 0.132L1.37264 1.05339C1.43459 1.02726 1.54097 1 1.715 1V0V-1C1.33703 -1 0.955413 -0.94126 0.595357 -0.789389L0.984 0.132ZM1.715 0V1C1.88533 1 1.9936 1.02704 2.05792 1.05404L2.445 0.132L2.83208 -0.790044C2.4724 -0.941042 2.09067 -1 1.715 -1V0ZM2.445 0.132L2.06687 1.05775C2.1342 1.08525 2.18014 1.12015 2.21884 1.16556L2.98 0.517L3.74116 -0.131563C3.49186 -0.424146 3.1818 -0.647253 2.82313 -0.793755L2.445 0.132ZM2.98 0.517L2.21851 1.16517C2.26166 1.21587 2.31215 1.29758 2.35571 1.43507L3.309 1.133L4.26229 0.83093C4.15185 0.482423 3.98434 0.154125 3.74149 -0.131175L2.98 0.517ZM3.309 1.133L2.35494 1.43262C2.39445 1.55842 2.422 1.72727 2.422 1.953H3.422H4.422C4.422 1.56873 4.37555 1.19158 4.26306 0.833378L3.309 1.133ZM3.422 1.953H2.422C2.422 2.42767 2.3085 2.60445 2.25405 2.66244L2.983 3.347L3.71195 4.03156C4.2435 3.46555 4.422 2.71033 4.422 1.953H3.422ZM2.983 3.347L2.25405 2.66244C2.20099 2.71893 2.07633 2.815 1.715 2.815V3.815V4.815C2.45967 4.815 3.17901 4.59907 3.71195 4.03156L2.983 3.347ZM1.715 3.174V4.174C1.9693 4.174 2.22891 4.12782 2.47829 4.02338L2.092 3.101L1.70571 2.17862C1.71275 2.17567 1.71803 2.17437 1.72051 2.1739C1.72287 2.17344 1.72128 2.174 1.715 2.174V3.174ZM2.092 3.101L2.46608 4.0284C2.73298 3.92074 2.96184 3.75538 3.14705 3.54913L2.403 2.881L1.65895 2.21287C1.66246 2.20897 1.66971 2.2018 1.68105 2.19376C1.69251 2.18565 1.70521 2.17873 1.71792 2.1736L2.092 3.101ZM2.403 2.881L3.15041 3.54536C3.35103 3.31967 3.47745 3.06251 3.5593 2.81538L2.61 2.501L1.6607 2.18662C1.65094 2.2161 1.64354 2.23081 1.64136 2.23484C1.63939 2.23846 1.64324 2.23054 1.65559 2.21664L2.403 2.881ZM2.61 2.501L3.56112 2.80981C3.65258 2.52812 3.684 2.23575 3.684 1.953H2.684H1.684C1.684 2.09425 1.66742 2.16588 1.65888 2.19219L2.61 2.501ZM2.684 1.953H3.684C3.684 1.42481 3.58599 0.852573 3.23712 0.388828L2.438 0.99L1.63888 1.59117C1.62643 1.57462 1.63846 1.58244 1.65361 1.64175C1.66914 1.70252 1.684 1.80248 1.684 1.953H2.684ZM2.438 0.99L3.23318 0.383629C2.8477 -0.121877 2.29119 -0.338 1.715 -0.338V0.662V1.662C1.758 1.662 1.7515 1.66918 1.71914 1.6545C1.7035 1.6474 1.687 1.63745 1.67173 1.62515C1.65663 1.61299 1.64724 1.60216 1.64282 1.59637L2.438 0.99ZM1.715 0.662V-0.338C1.14098 -0.338 0.583328 -0.122828 0.196569 0.38134L0.99 0.99L1.78343 1.59866C1.77885 1.60463 1.76952 1.61524 1.75482 1.62702C1.73997 1.63891 1.72407 1.64842 1.70919 1.65514C1.6784 1.66906 1.67288 1.662 1.715 1.662V0.662ZM0.99 0.99L0.200065 0.376809C-0.162169 0.843451 -0.264 1.4211 -0.264 1.953H0.736H1.736C1.736 1.80467 1.75105 1.70753 1.76631 1.64957C1.78104 1.59358 1.79241 1.58711 1.77993 1.60319L0.99 0.99ZM0.736 1.953H-0.264C-0.264 2.47776 -0.163098 3.07544 0.236565 3.53622L0.992 2.881L1.74743 2.22578C1.77986 2.26317 1.77615 2.27925 1.76409 2.23565C1.75145 2.18992 1.736 2.1007 1.736 1.953H0.736ZM0.992 2.881L0.236565 3.53622C0.636779 3.99765 1.18183 4.174 1.715 4.174V3.174V2.174C1.66257 2.174 1.65545 2.16582 1.67533 2.17385C1.68529 2.17788 1.6987 2.1847 1.71318 2.19502C1.72771 2.20536 1.73925 2.21633 1.74743 2.22578L0.992 2.881Z" fill="white" mask="url(#path-1-inside-1_2109_200)"/>
<mask id="path-3-inside-2_2109_200" fill="white">
<path d="M3.625 3.691V0.117996H5.203C5.379 0.117996 5.535 0.146996 5.676 0.205996C5.817 0.264996 5.936 0.347996 6.037 0.453996C6.137 0.559996 6.215 0.682996 6.267 0.822996C6.32 0.962996 6.35 1.114 6.35 1.275C6.35 1.437 6.321 1.586 6.268 1.725C6.215 1.862 6.137 1.98 6.037 2.079C5.936 2.178 5.816 2.255 5.676 2.311C5.536 2.367 5.379 2.395 5.203 2.395H4.373V3.691H3.625ZM5.084 1.787C5.299 1.787 5.455 1.737 5.549 1.639C5.645 1.54 5.691 1.411 5.691 1.253C5.691 1.102 5.644 0.978996 5.548 0.880996C5.454 0.784996 5.298 0.735996 5.083 0.735996H4.373V1.786H5.084V1.787Z"/>
</mask>
<path d="M3.625 3.691V0.117996H5.203C5.379 0.117996 5.535 0.146996 5.676 0.205996C5.817 0.264996 5.936 0.347996 6.037 0.453996C6.137 0.559996 6.215 0.682996 6.267 0.822996C6.32 0.962996 6.35 1.114 6.35 1.275C6.35 1.437 6.321 1.586 6.268 1.725C6.215 1.862 6.137 1.98 6.037 2.079C5.936 2.178 5.816 2.255 5.676 2.311C5.536 2.367 5.379 2.395 5.203 2.395H4.373V3.691H3.625ZM5.084 1.787C5.299 1.787 5.455 1.737 5.549 1.639C5.645 1.54 5.691 1.411 5.691 1.253C5.691 1.102 5.644 0.978996 5.548 0.880996C5.454 0.784996 5.298 0.735996 5.083 0.735996H4.373V1.786H5.084V1.787Z" fill="#AFC1D1"/>
<path d="M3.625 3.691H2.625V4.691H3.625V3.691ZM3.625 0.117996V-0.882004H2.625V0.117996H3.625ZM6.037 0.453996L6.7644 -0.232233L6.76098 -0.23583L6.037 0.453996ZM6.267 0.822996L5.32956 1.17119L5.33177 1.17705L6.267 0.822996ZM6.268 1.725L7.20065 2.0858L7.20238 2.08127L6.268 1.725ZM6.037 2.079L6.73701 2.79315L6.74054 2.78965L6.037 2.079ZM4.373 2.395V1.395H3.373V2.395H4.373ZM4.373 3.691V4.691H5.373V3.691H4.373ZM5.084 1.787H4.084V2.787H5.084V1.787ZM5.549 1.639L4.83109 0.94284L4.82732 0.946771L5.549 1.639ZM5.548 0.880996L4.83349 1.58062L4.83364 1.58078L5.548 0.880996ZM4.373 0.735996V-0.264004H3.373V0.735996H4.373ZM4.373 1.786H3.373V2.786H4.373V1.786ZM5.084 1.786H6.084V0.785996H5.084V1.786ZM3.625 3.691H4.625V0.117996H3.625H2.625V3.691H3.625ZM3.625 0.117996V1.118H5.203V0.117996V-0.882004H3.625V0.117996ZM5.203 0.117996V1.118C5.26652 1.118 5.28849 1.12786 5.28999 1.12849L5.676 0.205996L6.06201 -0.716499C5.78151 -0.83387 5.49148 -0.882004 5.203 -0.882004V0.117996ZM5.676 0.205996L5.28999 1.12849C5.29827 1.13195 5.30219 1.1345 5.30381 1.13561C5.30544 1.13674 5.30834 1.1389 5.31302 1.14382L6.037 0.453996L6.76098 -0.23583C6.56534 -0.441146 6.33151 -0.603729 6.06201 -0.716499L5.676 0.205996ZM6.037 0.453996L5.30961 1.14022C5.31598 1.14697 5.31986 1.15233 5.32239 1.15636C5.32487 1.16033 5.32727 1.16497 5.32957 1.17118L6.267 0.822996L7.20443 0.47481C7.10419 0.204933 6.95317 -0.0321205 6.76439 -0.232224L6.037 0.453996ZM6.267 0.822996L5.33177 1.17705C5.34403 1.20943 5.35 1.24072 5.35 1.275H6.35H7.35C7.35 0.987276 7.29597 0.716562 7.20223 0.468946L6.267 0.822996ZM6.35 1.275H5.35C5.35 1.31376 5.34377 1.34211 5.33362 1.36872L6.268 1.725L7.20238 2.08127C7.29823 1.82988 7.35 1.56023 7.35 1.275H6.35ZM6.268 1.725L5.33536 1.36419C5.33372 1.36842 5.3329 1.36938 5.33347 1.36852C5.33403 1.36766 5.33435 1.36745 5.33346 1.36835L6.037 2.079L6.74054 2.78965C6.94084 2.59135 7.09685 2.35409 7.20064 2.0858L6.268 1.725ZM6.037 2.079L5.337 1.36485C5.33692 1.36493 5.3309 1.37201 5.30461 1.38252L5.676 2.311L6.04739 3.23947C6.3011 3.13799 6.53508 2.99106 6.737 2.79314L6.037 2.079ZM5.676 2.311L5.30461 1.38252C5.3001 1.38432 5.27194 1.395 5.203 1.395V2.395V3.395C5.48606 3.395 5.7719 3.34967 6.04739 3.23947L5.676 2.311ZM5.203 2.395V1.395H4.373V2.395V3.395H5.203V2.395ZM4.373 2.395H3.373V3.691H4.373H5.373V2.395H4.373ZM4.373 3.691V2.691H3.625V3.691V4.691H4.373V3.691ZM5.084 1.787V2.787C5.41957 2.787 5.90394 2.71357 6.27068 2.33122L5.549 1.639L4.82732 0.946771C4.91664 0.853648 5.0084 0.812848 5.0581 0.797002C5.10374 0.782449 5.11849 0.786996 5.084 0.786996V1.787ZM5.549 1.639L6.2669 2.33514C6.57734 2.015 6.691 1.61839 6.691 1.253H5.691H4.691C4.691 1.23519 4.69364 1.18818 4.71663 1.12521C4.74077 1.05909 4.78017 0.995369 4.8311 0.94285L5.549 1.639ZM5.691 1.253H6.691C6.691 0.87144 6.56212 0.487219 6.26236 0.181216L5.548 0.880996L4.83364 1.58078C4.7894 1.53561 4.74885 1.47565 4.72191 1.40547C4.6958 1.33743 4.691 1.28218 4.691 1.253H5.691ZM5.548 0.880996L6.26251 0.181371C5.89514 -0.193815 5.41386 -0.264004 5.083 -0.264004V0.735996V1.736C5.11905 1.736 5.10633 1.74064 5.06269 1.727C5.01543 1.71224 4.92395 1.67301 4.83349 1.58062L5.548 0.880996ZM5.083 0.735996V-0.264004H4.373V0.735996V1.736H5.083V0.735996ZM4.373 0.735996H3.373V1.786H4.373H5.373V0.735996H4.373ZM4.373 1.786V2.786H5.084V1.786V0.785996H4.373V1.786ZM5.084 1.786H4.084V1.787H5.084H6.084V1.786H5.084Z" fill="white" mask="url(#path-3-inside-2_2109_200)"/>
<mask id="path-5-inside-3_2109_200" fill="white">
<path d="M7.445 3.691V0.741996H6.369V0.117996H9.275V0.741996H8.193V3.691H7.445Z"/>
</mask>
<path d="M7.445 3.691V0.741996H6.369V0.117996H9.275V0.741996H8.193V3.691H7.445Z" fill="#AFC1D1"/>
<path d="M7.445 3.691H6.445V4.691H7.445V3.691ZM7.445 0.741996H8.445V-0.258004H7.445V0.741996ZM6.369 0.741996H5.369V1.742H6.369V0.741996ZM6.369 0.117996V-0.882004H5.369V0.117996H6.369ZM9.275 0.117996H10.275V-0.882004H9.275V0.117996ZM9.275 0.741996V1.742H10.275V0.741996H9.275ZM8.193 0.741996V-0.258004H7.193V0.741996H8.193ZM8.193 3.691V4.691H9.193V3.691H8.193ZM7.445 3.691H8.445V0.741996H7.445H6.445V3.691H7.445ZM7.445 0.741996V-0.258004H6.369V0.741996V1.742H7.445V0.741996ZM6.369 0.741996H7.369V0.117996H6.369H5.369V0.741996H6.369ZM6.369 0.117996V1.118H9.275V0.117996V-0.882004H6.369V0.117996ZM9.275 0.117996H8.275V0.741996H9.275H10.275V0.117996H9.275ZM9.275 0.741996V-0.258004H8.193V0.741996V1.742H9.275V0.741996ZM8.193 0.741996H7.193V3.691H8.193H9.193V0.741996H8.193ZM8.193 3.691V2.691H7.445V3.691V4.691H8.193V3.691Z" fill="white" mask="url(#path-5-inside-3_2109_200)"/>
<mask id="path-7-inside-4_2109_200" fill="white">
<path d="M9.42599 3.691V0.117996H10.174V3.691H9.42599Z"/>
</mask>
<path d="M9.42599 3.691V0.117996H10.174V3.691H9.42599Z" fill="#AFC1D1"/>
<path d="M9.42599 3.691H8.42599V4.691H9.42599V3.691ZM9.42599 0.117996V-0.882004H8.42599V0.117996H9.42599ZM10.174 0.117996H11.174V-0.882004H10.174V0.117996ZM10.174 3.691V4.691H11.174V3.691H10.174ZM9.42599 3.691H10.426V0.117996H9.42599H8.42599V3.691H9.42599ZM9.42599 0.117996V1.118H10.174V0.117996V-0.882004H9.42599V0.117996ZM10.174 0.117996H9.174V3.691H10.174H11.174V0.117996H10.174ZM10.174 3.691V2.691H9.42599V3.691V4.691H10.174V3.691Z" fill="white" mask="url(#path-7-inside-4_2109_200)"/>
<mask id="path-9-inside-5_2109_200" fill="white">
<path d="M12.088 3.815C11.537 3.815 11.113 3.653 10.817 3.331C10.522 3.008 10.374 2.543 10.374 1.937C10.374 1.635 10.411 1.365 10.487 1.124C10.561 0.884 10.673 0.68 10.819 0.514C10.967 0.347 11.147 0.219 11.358 0.132C11.57 0.043 11.813 0 12.088 0C12.361 0 12.606 0.043 12.818 0.132C13.031 0.219 13.209 0.348 13.353 0.517C13.496 0.685 13.607 0.89 13.681 1.133C13.757 1.375 13.794 1.648 13.794 1.953C13.794 2.569 13.648 3.035 13.355 3.347C13.064 3.659 12.643 3.815 12.088 3.815ZM12.088 3.174C12.223 3.174 12.348 3.15 12.465 3.101C12.584 3.053 12.688 2.979 12.776 2.881C12.864 2.782 12.932 2.655 12.983 2.501C13.034 2.346 13.059 2.164 13.059 1.953C13.059 1.529 12.975 1.208 12.811 0.99C12.645 0.771 12.405 0.662 12.088 0.662C11.774 0.662 11.531 0.771 11.363 0.99C11.195 1.209 11.111 1.53 11.111 1.953C11.111 2.376 11.195 2.685 11.365 2.881C11.535 3.077 11.777 3.174 12.088 3.174Z"/>
</mask>
<path d="M12.088 3.815C11.537 3.815 11.113 3.653 10.817 3.331C10.522 3.008 10.374 2.543 10.374 1.937C10.374 1.635 10.411 1.365 10.487 1.124C10.561 0.884 10.673 0.68 10.819 0.514C10.967 0.347 11.147 0.219 11.358 0.132C11.57 0.043 11.813 0 12.088 0C12.361 0 12.606 0.043 12.818 0.132C13.031 0.219 13.209 0.348 13.353 0.517C13.496 0.685 13.607 0.89 13.681 1.133C13.757 1.375 13.794 1.648 13.794 1.953C13.794 2.569 13.648 3.035 13.355 3.347C13.064 3.659 12.643 3.815 12.088 3.815ZM12.088 3.174C12.223 3.174 12.348 3.15 12.465 3.101C12.584 3.053 12.688 2.979 12.776 2.881C12.864 2.782 12.932 2.655 12.983 2.501C13.034 2.346 13.059 2.164 13.059 1.953C13.059 1.529 12.975 1.208 12.811 0.99C12.645 0.771 12.405 0.662 12.088 0.662C11.774 0.662 11.531 0.771 11.363 0.99C11.195 1.209 11.111 1.53 11.111 1.953C11.111 2.376 11.195 2.685 11.365 2.881C11.535 3.077 11.777 3.174 12.088 3.174Z" fill="#AFC1D1"/>
<path d="M10.817 3.331L10.0786 4.00538L10.0808 4.00776L10.817 3.331ZM10.487 1.124L11.4407 1.42476L11.4426 1.41865L10.487 1.124ZM10.819 0.514L10.0706 -0.149255L10.0681 -0.146424L10.819 0.514ZM11.358 0.132L11.7392 1.05652L11.7451 1.05404L11.358 0.132ZM12.818 0.132L12.4309 1.05409L12.4399 1.05775L12.818 0.132ZM13.353 0.517L14.1145 -0.131175L14.1142 -0.131563L13.353 0.517ZM13.681 1.133L12.7243 1.42433L12.7269 1.43262L13.681 1.133ZM13.355 3.347L12.626 2.66243L12.6237 2.66493L13.355 3.347ZM12.465 3.101L12.0909 2.17352L12.0787 2.17862L12.465 3.101ZM12.776 2.881L13.5201 3.54913L13.5234 3.54536L12.776 2.881ZM12.983 2.501L13.9323 2.81538L13.9329 2.81355L12.983 2.501ZM12.811 0.99L13.6101 0.388824L13.6079 0.385932L12.811 0.99ZM12.088 3.815V2.815C11.7405 2.815 11.6137 2.72009 11.5532 2.65424L10.817 3.331L10.0808 4.00776C10.6123 4.58591 11.3334 4.815 12.088 4.815V3.815ZM10.817 3.331L11.5554 2.65662C11.4839 2.57832 11.374 2.38955 11.374 1.937H10.374H9.37399C9.37399 2.69645 9.56012 3.43768 10.0786 4.00538L10.817 3.331ZM10.374 1.937H11.374C11.374 1.71564 11.4012 1.54996 11.4407 1.42475L10.487 1.124L9.53329 0.823247C9.42078 1.18004 9.37399 1.55436 9.37399 1.937H10.374ZM10.487 1.124L11.4426 1.41865C11.4795 1.29912 11.5268 1.22346 11.5699 1.17442L10.819 0.514L10.0681 -0.146424C9.81923 0.136536 9.64253 0.468883 9.53139 0.829355L10.487 1.124ZM10.819 0.514L11.5674 1.17725C11.6132 1.12558 11.6671 1.08623 11.7392 1.0565L11.358 0.132L10.9768 -0.792497C10.6269 -0.648226 10.3208 -0.431578 10.0706 -0.14925L10.819 0.514ZM11.358 0.132L11.7451 1.05404C11.8098 1.02687 11.9162 1 12.088 1V0V-1C11.7098 -1 11.3302 -0.940873 10.9709 -0.790044L11.358 0.132ZM12.088 0V1C12.2583 1 12.3666 1.02704 12.4309 1.05404L12.818 0.132L13.2051 -0.790044C12.8454 -0.941042 12.4637 -1 12.088 -1V0ZM12.818 0.132L12.4399 1.05775C12.5072 1.08525 12.5531 1.12015 12.5918 1.16556L13.353 0.517L14.1142 -0.131563C13.8649 -0.424145 13.5548 -0.647252 13.1961 -0.793755L12.818 0.132ZM13.353 0.517L12.5915 1.16517C12.6376 1.21936 12.6865 1.29991 12.7244 1.42432L13.681 1.133L14.6376 0.841682C14.5275 0.480091 14.3544 0.150645 14.1145 -0.131175L13.353 0.517ZM13.681 1.133L12.7269 1.43262C12.7664 1.55842 12.794 1.72727 12.794 1.953H13.794H14.794C14.794 1.56873 14.7475 1.19158 14.6351 0.833378L13.681 1.133ZM13.794 1.953H12.794C12.794 2.42767 12.6805 2.60445 12.626 2.66244L13.355 3.347L14.0839 4.03156C14.6155 3.46555 14.794 2.71033 14.794 1.953H13.794ZM13.355 3.347L12.6237 2.66493C12.5738 2.71845 12.4523 2.815 12.088 2.815V3.815V4.815C12.8336 4.815 13.5542 4.59955 14.0863 4.02907L13.355 3.347ZM12.088 3.174V4.174C12.3453 4.174 12.6028 4.12744 12.8513 4.02338L12.465 3.101L12.0787 2.17862C12.0842 2.17631 12.0897 2.17478 12.0935 2.17404C12.0972 2.17333 12.0959 2.174 12.088 2.174V3.174ZM12.465 3.101L12.8391 4.0284C13.106 3.92074 13.3348 3.75538 13.52 3.54913L12.776 2.881L12.0319 2.21287C12.0355 2.20897 12.0427 2.2018 12.054 2.19376C12.0655 2.18565 12.0782 2.17873 12.0909 2.1736L12.465 3.101ZM12.776 2.881L13.5234 3.54536C13.724 3.31967 13.8504 3.06251 13.9323 2.81538L12.983 2.501L12.0337 2.18662C12.0239 2.2161 12.0165 2.23081 12.0143 2.23484C12.0124 2.23846 12.0162 2.23054 12.0286 2.21664L12.776 2.881ZM12.983 2.501L13.9329 2.81355C14.0255 2.53201 14.059 2.23928 14.059 1.953H13.059H12.059C12.059 2.08872 12.0425 2.15999 12.0331 2.18845L12.983 2.501ZM13.059 1.953H14.059C14.059 1.41984 13.957 0.849994 13.6101 0.388828L12.811 0.99L12.0119 1.59117C12.0006 1.57624 12.013 1.58545 12.0283 1.64458C12.044 1.70507 12.059 1.80426 12.059 1.953H13.059ZM12.811 0.99L13.6079 0.385932C13.2224 -0.122645 12.6639 -0.338 12.088 -0.338V0.662V1.662C12.132 1.662 12.1256 1.66936 12.0929 1.6545C12.077 1.64729 12.0601 1.63711 12.0444 1.62439C12.0288 1.61181 12.0189 1.60047 12.0141 1.59407L12.811 0.99ZM12.088 0.662V-0.338C11.5156 -0.338 10.9566 -0.123254 10.5696 0.38134L11.363 0.99L12.1564 1.59866C12.1515 1.60502 12.1421 1.61574 12.1274 1.62748C12.1126 1.63932 12.0968 1.64871 12.0822 1.6553C12.052 1.66894 12.0467 1.662 12.088 1.662V0.662ZM11.363 0.99L10.5696 0.38134C10.213 0.846139 10.111 1.42066 10.111 1.953H11.111H12.111C12.111 1.80477 12.126 1.70702 12.1414 1.64816C12.1564 1.59107 12.1682 1.58336 12.1564 1.59866L11.363 0.99ZM11.111 1.953H10.111C10.111 2.47248 10.2078 3.07299 10.6096 3.53622L11.365 2.881L12.1204 2.22578C12.1542 2.26475 12.1508 2.28234 12.1389 2.23855C12.1263 2.19249 12.111 2.10251 12.111 1.953H11.111ZM11.365 2.881L10.6096 3.53622C11.0098 3.99765 11.5548 4.174 12.088 4.174V3.174V2.174C12.0356 2.174 12.0284 2.16582 12.0483 2.17385C12.0583 2.17788 12.0717 2.1847 12.0862 2.19502C12.1007 2.20536 12.1122 2.21633 12.1204 2.22578L11.365 2.881Z" fill="white" mask="url(#path-9-inside-5_2109_200)"/>
<mask id="path-11-inside-6_2109_200" fill="white">
<path d="M16.223 3.691L14.694 1.291V3.691H14V0.117996H14.791L16.211 2.415V0.117996H16.91V3.691H16.223Z"/>
</mask>
<path d="M16.223 3.691L14.694 1.291V3.691H14V0.117996H14.791L16.211 2.415V0.117996H16.91V3.691H16.223Z" fill="#AFC1D1"/>
<path d="M16.223 3.691L15.3796 4.2283L15.6744 4.691H16.223V3.691ZM14.694 1.291L15.5374 0.753689L13.694 -2.13979V1.291H14.694ZM14.694 3.691V4.691H15.694V3.691H14.694ZM14 3.691H13V4.691H14V3.691ZM14 0.117996V-0.882004H13V0.117996H14ZM14.791 0.117996L15.6416 -0.407836L15.3485 -0.882004H14.791V0.117996ZM16.211 2.415L15.3604 2.94083L17.211 5.93435V2.415H16.211ZM16.211 0.117996V-0.882004H15.211V0.117996H16.211ZM16.91 0.117996H17.91V-0.882004H16.91V0.117996ZM16.91 3.691V4.691H17.91V3.691H16.91ZM16.223 3.691L17.0664 3.15369L15.5374 0.753689L14.694 1.291L13.8506 1.8283L15.3796 4.2283L16.223 3.691ZM14.694 1.291H13.694V3.691H14.694H15.694V1.291H14.694ZM14.694 3.691V2.691H14V3.691V4.691H14.694V3.691ZM14 3.691H15V0.117996H14H13V3.691H14ZM14 0.117996V1.118H14.791V0.117996V-0.882004H14V0.117996ZM14.791 0.117996L13.9404 0.643828L15.3604 2.94083L16.211 2.415L17.0616 1.88916L15.6416 -0.407836L14.791 0.117996ZM16.211 2.415H17.211V0.117996H16.211H15.211V2.415H16.211ZM16.211 0.117996V1.118H16.91V0.117996V-0.882004H16.211V0.117996ZM16.91 0.117996H15.91V3.691H16.91H17.91V0.117996H16.91ZM16.91 3.691V2.691H16.223V3.691V4.691H16.91V3.691Z" fill="white" mask="url(#path-11-inside-6_2109_200)"/>
<mask id="path-13-inside-7_2109_200" fill="white">
<path d="M19.176 1.173C19.156 0.99 19.092 0.853 18.977 0.764C18.862 0.674 18.69 0.629 18.461 0.629C18.037 0.629 17.826 0.775 17.826 1.065C17.826 1.169 17.869 1.256 17.957 1.326C18.045 1.397 18.186 1.455 18.379 1.501C18.609 1.555 18.807 1.605 18.977 1.652C19.145 1.698 19.299 1.752 19.44 1.813C19.518 1.846 19.594 1.886 19.663 1.935C19.733 1.983 19.792 2.043 19.841 2.115C19.89 2.187 19.929 2.273 19.956 2.373C19.984 2.473 20 2.595 20 2.738C20 2.91 19.963 3.063 19.891 3.196C19.82 3.328 19.723 3.44 19.6 3.532C19.479 3.623 19.334 3.693 19.17 3.742C19.006 3.79 18.832 3.815 18.649 3.815C18.129 3.815 17.737 3.714 17.475 3.513C17.213 3.313 17.077 3.015 17.061 2.62H17.784C17.786 2.803 17.86 2.947 18.007 3.053C18.152 3.158 18.333 3.212 18.552 3.212C18.79 3.212 18.968 3.169 19.091 3.083C19.212 2.998 19.275 2.88 19.275 2.733C19.275 2.675 19.267 2.623 19.252 2.574C19.238 2.526 19.211 2.482 19.17 2.442C19.127 2.402 19.072 2.368 19 2.337C18.928 2.306 18.834 2.279 18.721 2.254C18.448 2.197 18.211 2.138 18.012 2.079C17.815 2.02 17.651 1.947 17.522 1.859C17.391 1.771 17.295 1.664 17.235 1.539C17.174 1.413 17.143 1.254 17.143 1.06C17.143 0.913 17.172 0.775 17.225 0.646C17.278 0.517 17.362 0.405 17.473 0.31C17.584 0.215 17.721 0.14 17.883 0.084C18.045 0.027 18.238 0 18.461 0C18.676 0 18.869 0.027 19.041 0.083C19.213 0.138 19.361 0.217 19.484 0.319C19.609 0.422 19.705 0.545 19.773 0.691C19.839 0.837 19.878 0.997 19.886 1.173H19.176Z"/>
</mask>
<path d="M19.176 1.173C19.156 0.99 19.092 0.853 18.977 0.764C18.862 0.674 18.69 0.629 18.461 0.629C18.037 0.629 17.826 0.775 17.826 1.065C17.826 1.169 17.869 1.256 17.957 1.326C18.045 1.397 18.186 1.455 18.379 1.501C18.609 1.555 18.807 1.605 18.977 1.652C19.145 1.698 19.299 1.752 19.44 1.813C19.518 1.846 19.594 1.886 19.663 1.935C19.733 1.983 19.792 2.043 19.841 2.115C19.89 2.187 19.929 2.273 19.956 2.373C19.984 2.473 20 2.595 20 2.738C20 2.91 19.963 3.063 19.891 3.196C19.82 3.328 19.723 3.44 19.6 3.532C19.479 3.623 19.334 3.693 19.17 3.742C19.006 3.79 18.832 3.815 18.649 3.815C18.129 3.815 17.737 3.714 17.475 3.513C17.213 3.313 17.077 3.015 17.061 2.62H17.784C17.786 2.803 17.86 2.947 18.007 3.053C18.152 3.158 18.333 3.212 18.552 3.212C18.79 3.212 18.968 3.169 19.091 3.083C19.212 2.998 19.275 2.88 19.275 2.733C19.275 2.675 19.267 2.623 19.252 2.574C19.238 2.526 19.211 2.482 19.17 2.442C19.127 2.402 19.072 2.368 19 2.337C18.928 2.306 18.834 2.279 18.721 2.254C18.448 2.197 18.211 2.138 18.012 2.079C17.815 2.02 17.651 1.947 17.522 1.859C17.391 1.771 17.295 1.664 17.235 1.539C17.174 1.413 17.143 1.254 17.143 1.06C17.143 0.913 17.172 0.775 17.225 0.646C17.278 0.517 17.362 0.405 17.473 0.31C17.584 0.215 17.721 0.14 17.883 0.084C18.045 0.027 18.238 0 18.461 0C18.676 0 18.869 0.027 19.041 0.083C19.213 0.138 19.361 0.217 19.484 0.319C19.609 0.422 19.705 0.545 19.773 0.691C19.839 0.837 19.878 0.997 19.886 1.173H19.176Z" fill="#AFC1D1"/>
<path d="M19.176 1.173L18.1819 1.28164L18.2793 2.173H19.176V1.173ZM18.977 0.764L18.3607 1.55152L18.365 1.55483L18.977 0.764ZM17.957 1.326L18.5849 0.547708L18.5795 0.543399L17.957 1.326ZM18.379 1.501L18.1472 2.47376L18.1504 2.47453L18.379 1.501ZM18.977 1.652L18.7105 2.61585L18.7129 2.6165L18.977 1.652ZM19.44 1.813L19.0429 2.73082L19.0504 2.73397L19.44 1.813ZM19.663 1.935L19.084 2.75033L19.0907 2.75508L19.0975 2.75973L19.663 1.935ZM19.956 2.373L18.9905 2.63368L18.993 2.64263L19.956 2.373ZM19.891 3.196L19.0116 2.71993L19.0103 2.7223L19.891 3.196ZM19.6 3.532L19.001 2.73122L18.9989 2.73279L19.6 3.532ZM19.17 3.742L19.4509 4.70175L19.4563 4.70015L19.17 3.742ZM17.475 3.513L18.0837 2.71959L18.0818 2.71813L17.475 3.513ZM17.061 2.62V1.62H16.0197L16.0618 2.66047L17.061 2.62ZM17.784 2.62L18.7839 2.60907L18.7731 1.62H17.784V2.62ZM18.007 3.053L18.5935 2.24306L18.5919 2.24188L18.007 3.053ZM19.091 3.083L19.664 3.90255L19.6658 3.90128L19.091 3.083ZM19.252 2.574L18.2919 2.85402L18.2958 2.86671L19.252 2.574ZM19.17 2.442L19.8683 1.72622L19.8598 1.71791L19.8511 1.70981L19.17 2.442ZM18.721 2.254L18.937 1.27754L18.9254 1.27511L18.721 2.254ZM18.012 2.079L17.7251 3.03696L17.7278 3.03775L18.012 2.079ZM17.522 1.859L18.0856 1.03289L18.0796 1.0289L17.522 1.859ZM17.235 1.539L18.1365 1.10627L18.1351 1.10325L17.235 1.539ZM17.883 0.084L18.2097 1.02914L18.2149 1.02731L17.883 0.084ZM19.041 0.083L18.7314 1.03388L18.7364 1.03549L19.041 0.083ZM19.484 0.319L18.8457 1.08876L18.8481 1.09075L19.484 0.319ZM19.773 0.691L20.6843 0.279052L20.6795 0.268794L19.773 0.691ZM19.886 1.173V2.173H20.9325L20.885 1.12759L19.886 1.173ZM19.176 1.173L20.1701 1.06436C20.131 0.706648 19.9841 0.278928 19.589 -0.0268311L18.977 0.764L18.365 1.55483C18.2915 1.498 18.241 1.429 18.2112 1.36722C18.184 1.31078 18.1813 1.27551 18.1819 1.28164L19.176 1.173ZM18.977 0.764L19.5933 -0.023505C19.2272 -0.309999 18.7943 -0.371 18.461 -0.371V0.629V1.629C18.5132 1.629 18.525 1.63447 18.5086 1.63019C18.4906 1.62547 18.4314 1.60684 18.3607 1.5515L18.977 0.764ZM18.461 0.629V-0.371C18.1652 -0.371 17.7667 -0.325676 17.4177 -0.0856215C17.0015 0.200747 16.826 0.641582 16.826 1.065H17.826H18.826C18.826 1.11388 18.8168 1.20482 18.7654 1.31077C18.7118 1.42141 18.6324 1.5063 18.5513 1.56212C18.4138 1.65668 18.3328 1.629 18.461 1.629V0.629ZM17.826 1.065H16.826C16.826 1.49452 17.0247 1.86219 17.3345 2.1086L17.957 1.326L18.5795 0.543399C18.6329 0.585821 18.7007 0.656504 18.7529 0.761034C18.8061 0.867371 18.826 0.974516 18.826 1.065H17.826ZM17.957 1.326L17.3291 2.10427C17.5914 2.31593 17.9064 2.41638 18.1472 2.47375L18.379 1.501L18.6109 0.528248C18.5817 0.521308 18.559 0.514949 18.5417 0.509583C18.5244 0.504181 18.5146 0.500368 18.511 0.498879C18.5073 0.497325 18.5125 0.499228 18.5243 0.505877C18.536 0.512455 18.5577 0.525718 18.5849 0.547726L17.957 1.326ZM18.379 1.501L18.1504 2.47453C18.3717 2.52647 18.5565 2.57325 18.7105 2.61584L18.977 1.652L19.2435 0.688158C19.0575 0.63675 18.8463 0.583529 18.6076 0.527472L18.379 1.501ZM18.977 1.652L18.7129 2.6165C18.8388 2.65097 18.9481 2.68976 19.0429 2.73079L19.44 1.813L19.8371 0.895207C19.6499 0.814236 19.4512 0.745031 19.2411 0.687502L18.977 1.652ZM19.44 1.813L19.0504 2.73397C19.0634 2.73947 19.0726 2.74403 19.0785 2.74724C19.0844 2.75046 19.0859 2.75169 19.084 2.75033L19.663 1.935L20.242 1.11967C20.1012 1.01966 19.9583 0.946465 19.8296 0.892033L19.44 1.813ZM19.663 1.935L19.0975 2.75973C19.0599 2.73393 19.0318 2.70333 19.0143 2.67762L19.841 2.115L20.6677 1.55238C20.5522 1.38267 20.4062 1.23207 20.2285 1.11027L19.663 1.935ZM19.841 2.115L19.0143 2.67762C18.9934 2.64686 18.9891 2.6283 18.9906 2.63367L19.956 2.373L20.9214 2.11233C20.8689 1.9177 20.7867 1.72714 20.6677 1.55238L19.841 2.115ZM19.956 2.373L18.993 2.64263C18.9917 2.63774 19 2.66647 19 2.738H20H21C21 2.52353 20.9763 2.30826 20.919 2.10337L19.956 2.373ZM20 2.738H19C19 2.75207 18.9985 2.75491 18.9999 2.74922C19.0005 2.74649 19.0017 2.74228 19.0038 2.73696C19.0058 2.73163 19.0084 2.72585 19.0116 2.71993L19.891 3.196L20.7704 3.67207C20.9302 3.37693 21 3.05713 21 2.738H20ZM19.891 3.196L19.0103 2.7223C19.0097 2.72353 19.0093 2.72407 19.0092 2.72415C19.0092 2.72422 19.0092 2.72423 19.0091 2.72433C19.009 2.72442 19.0085 2.72497 19.0074 2.72598C19.0063 2.72701 19.0043 2.72878 19.001 2.73122L19.6 3.532L20.199 4.33278C20.4356 4.15579 20.63 3.93318 20.7717 3.6697L19.891 3.196ZM19.6 3.532L18.9989 2.73279C18.9876 2.74132 18.9537 2.76295 18.8837 2.78385L19.17 3.742L19.4563 4.70015C19.7143 4.62305 19.9704 4.50468 20.2011 4.33121L19.6 3.532ZM19.17 3.742L18.8891 2.78226C18.8193 2.8027 18.74 2.815 18.649 2.815V3.815V4.815C18.924 4.815 19.1927 4.7773 19.4509 4.70174L19.17 3.742ZM18.649 3.815V2.815C18.2314 2.815 18.0963 2.72928 18.0837 2.71959L17.475 3.513L16.8663 4.30641C17.3777 4.69872 18.0266 4.815 18.649 4.815V3.815ZM17.475 3.513L18.0818 2.71813C18.079 2.71598 18.0801 2.71647 18.0826 2.71952C18.085 2.72255 18.0852 2.72371 18.0836 2.72037C18.0805 2.71351 18.064 2.67388 18.0602 2.57953L17.061 2.62L16.0618 2.66047C16.0869 3.28015 16.3174 3.8874 16.8682 4.30787L17.475 3.513ZM17.061 2.62V3.62H17.784V2.62V1.62H17.061V2.62ZM17.784 2.62L16.7841 2.63093C16.7895 3.12673 17.0138 3.56968 17.4221 3.86412L18.007 3.053L18.5919 2.24188C18.6311 2.27018 18.6872 2.32401 18.7303 2.40771C18.7731 2.49099 18.7835 2.56555 18.7839 2.60907L17.784 2.62ZM18.007 3.053L17.4205 3.86294C17.7665 4.1135 18.1633 4.212 18.552 4.212V3.212V2.212C18.5246 2.212 18.5207 2.20863 18.5333 2.21232C18.5395 2.21415 18.5487 2.21741 18.5598 2.22281C18.571 2.22823 18.5824 2.23503 18.5935 2.24306L18.007 3.053ZM18.552 3.212V4.212C18.8869 4.212 19.3021 4.15558 19.664 3.90254L19.091 3.083L18.518 2.26346C18.5789 2.22087 18.625 2.20886 18.6314 2.20734C18.6348 2.20652 18.6305 2.2078 18.6167 2.20922C18.6029 2.21064 18.5817 2.212 18.552 2.212V3.212ZM19.091 3.083L19.6658 3.90128C20.0454 3.63462 20.275 3.21531 20.275 2.733H19.275H18.275C18.275 2.65959 18.2919 2.56318 18.344 2.46449C18.3956 2.36664 18.4631 2.30199 18.5162 2.26472L19.091 3.083ZM19.275 2.733H20.275C20.275 2.57942 20.2533 2.42855 20.2082 2.28129L19.252 2.574L18.2958 2.86671C18.2807 2.81745 18.275 2.77058 18.275 2.733H19.275ZM19.252 2.574L20.212 2.294C20.1446 2.06292 20.0187 1.87294 19.8683 1.72622L19.17 2.442L18.4717 3.15778C18.4033 3.09106 18.3314 2.98908 18.292 2.854L19.252 2.574ZM19.17 2.442L19.8511 1.70981C19.7017 1.57081 19.54 1.48075 19.3955 1.41852L19 2.337L18.6045 3.25548C18.604 3.25525 18.5523 3.23319 18.4889 3.17419L19.17 2.442ZM19 2.337L19.3955 1.41852C19.2386 1.35097 19.0739 1.30789 18.937 1.27761L18.721 2.254L18.505 3.23039C18.5454 3.23932 18.5739 3.24678 18.593 3.25241C18.613 3.25829 18.6149 3.25994 18.6045 3.25548L19 2.337ZM18.721 2.254L18.9254 1.27511C18.673 1.22242 18.4634 1.16981 18.2963 1.12025L18.012 2.079L17.7278 3.03775C17.9586 3.10619 18.223 3.17158 18.5166 3.23289L18.721 2.254ZM18.012 2.079L18.2989 1.12104C18.1675 1.08168 18.1053 1.04641 18.0855 1.03291L17.522 1.859L16.9585 2.68509C17.1967 2.84759 17.4625 2.95832 17.7251 3.03696L18.012 2.079ZM17.522 1.859L18.0796 1.0289C18.0761 1.02655 18.0837 1.0311 18.0963 1.04517C18.1094 1.05973 18.1241 1.08036 18.1365 1.10627L17.235 1.539L16.3335 1.97173C16.4809 2.27884 16.7064 2.51577 16.9644 2.6891L17.522 1.859ZM17.235 1.539L18.1351 1.10325C18.1476 1.12909 18.1494 1.14247 18.148 1.13569C18.1467 1.12846 18.143 1.1047 18.143 1.06H17.143H16.143C16.143 1.35344 16.1889 1.67313 16.3349 1.97475L17.235 1.539ZM17.143 1.06H18.143C18.143 1.05272 18.1437 1.04751 18.1445 1.04339C18.1453 1.03919 18.1469 1.0336 18.15 1.02603L17.225 0.646L16.3 0.265972C16.1993 0.51107 16.143 0.777891 16.143 1.06H17.143ZM17.225 0.646L18.15 1.02603C18.1442 1.03998 18.1372 1.05184 18.1307 1.06065C18.1244 1.06918 18.1207 1.07188 18.1232 1.06974L17.473 0.31L16.8228 -0.44974C16.6036 -0.262119 16.419 -0.0236845 16.3 0.265972L17.225 0.646ZM17.473 0.31L18.1232 1.06974C18.1219 1.07084 18.143 1.05218 18.2097 1.02912L17.883 0.084L17.5563 -0.861125C17.299 -0.772178 17.0461 -0.640839 16.8228 -0.44974L17.473 0.31ZM17.883 0.084L18.2149 1.02731C18.2394 1.01868 18.3129 1 18.461 1V0V-1C18.1631 -1 17.8506 -0.964682 17.5511 -0.859312L17.883 0.084ZM18.461 0V1C18.5936 1 18.6789 1.01678 18.7314 1.03387L19.041 0.083L19.3506 -0.867871C19.0591 -0.962779 18.7584 -1 18.461 -1V0ZM19.041 0.083L18.7364 1.03549C18.8014 1.05628 18.8326 1.07791 18.8457 1.08876L19.484 0.319L20.1223 -0.450758C19.8894 -0.643912 19.6246 -0.780276 19.3456 -0.869488L19.041 0.083ZM19.484 0.319L18.8481 1.09075C18.8562 1.09748 18.8595 1.10149 18.8605 1.10282C18.8615 1.10408 18.8635 1.1068 18.8665 1.11321L19.773 0.691L20.6795 0.268794C20.5472 -0.0152973 20.3576 -0.2569 20.1199 -0.452752L19.484 0.319ZM19.773 0.691L18.8618 1.10292C18.8742 1.13032 18.8846 1.1656 18.887 1.21841L19.886 1.173L20.885 1.12759C20.8714 0.828399 20.8038 0.543677 20.6842 0.279079L19.773 0.691ZM19.886 1.173V0.173H19.176V1.173V2.173H19.886V1.173Z" fill="white" mask="url(#path-13-inside-7_2109_200)"/>
<path d="M9 4.5C11.4371 4.5 13.5 6.71245 13.5 9.55566V18.4434C13.5 21.2867 11.437 23.5 9 23.5C6.56291 23.5 4.5 21.2876 4.5 18.4434V9.55566C4.5 6.71339 6.56291 4.5 9 4.5Z" stroke="white"/>
</svg>
